<svg width="91" height="82" viewBox="0 0 91 82" fill="none" xmlns="http://www.w3.org/2000/svg">
<path d="M55.81 75.7896C58.4916 76.5341 61.4102 76.8972 64.0237 76.8133C67.6575 76.6884 69.7495 76.1396 70.1687 75.2291L70.3784 74.7739L69.8173 75.149C69.1021 75.6371 68.441 75.7414 66.0103 75.8277C58.8918 76.0645 53.2481 74.1194 48.7265 69.8709C45.2843 66.6509 42.3762 61.6945 41.2068 57.0893C40.7775 55.359 40.3262 52.1675 40.466 51.8641C40.5048 51.7798 40.781 51.8456 41.0676 51.9776C41.9781 52.3969 44.5324 52.7966 46.1516 52.7862C48.0612 52.7664 50.5328 51.8815 51.9903 50.7135C55.1151 48.188 56.8628 43.6386 56.4299 39.2091C56.2586 37.4954 55.6206 35.7302 54.8719 34.9154C54.2347 34.2132 52.6434 33.5417 51.5881 33.5258C51.0981 33.5249 49.9691 33.802 49.0917 34.1541C44.5389 35.9197 40.2589 41.5304 38.7629 47.7079C38.6091 48.3523 35.4279 45.4977 33.8288 43.2899C29.9155 37.8093 27.1315 29.4769 25.9681 19.6225C25.7644 17.9347 25.578 15.2331 25.552 13.6476C25.5174 11.0159 25.3989 10.43 24.8931 10.1971C24.6571 10.0884 23.7387 10.9733 23.4669 11.5634C22.9157 12.7605 23.0146 16.3619 23.7426 21.7038C25.2179 32.4785 28.7233 41.5518 33.5116 46.8631C34.708 48.1702 36.741 49.9239 37.815 50.5206C38.3481 50.8274 38.3935 50.9505 38.4923 52.733C38.972 60.4334 43.1775 68.0308 49.5067 72.703C50.6042 73.5149 54.5366 75.4484 55.81 75.7896ZM40.8569 47.9978C40.9782 47.3793 41.4982 45.9839 42.1737 44.5171C43.1274 42.4018 43.4588 41.8596 44.4741 40.631C46.4168 38.2764 48.7426 36.7317 50.9954 36.2773C52.4562 35.9896 53.2994 36.6435 53.8649 38.4775C54.8346 41.5194 53.5203 46.3704 51.2247 48.3378C50.2712 49.1657 48.6422 49.9073 47.263 50.1509C45.5364 50.4389 42.6593 50.0744 41.3079 49.3703C40.6659 49.0338 40.649 49.026 40.8569 47.9978Z" fill="#262626"/>
<path d="M23.2197 8.77246C24.3644 8.72742 26.1418 8.72851 27.1569 8.78729C28.1721 8.84606 29.0692 8.85049 29.1677 8.81411C29.4632 8.70496 28.6552 6.82064 27.2543 4.31583C26.5129 2.95261 25.7885 1.86293 25.681 1.87469C25.5734 1.88645 25.4877 1.80614 25.4669 1.67392C25.4212 1.28503 25.1308 1.29435 24.7202 1.69789C24.3497 2.05861 21.1166 6.90479 20.5924 7.90996C20.1846 8.66223 20.8227 8.87431 23.2197 8.77246ZM21.7921 6.99108C21.9203 6.84577 22.6495 6.01674 23.4098 5.12027C24.1622 4.24065 24.7943 3.48949 24.8189 3.48039C24.8513 3.45444 25.3249 3.97909 25.8609 4.63463C27.0016 6.01825 28.2905 7.87883 28.135 7.95027C27.9704 7.99708 22.0466 7.4148 21.769 7.30743C21.6095 7.25441 21.6224 7.13772 21.7921 6.99108Z" fill="#262626"/>
</svg>
