<svg width="92" height="86" viewBox="0 0 92 86" fill="none" xmlns="http://www.w3.org/2000/svg">
<path d="M51.7364 78.7802C54.3054 79.8506 57.1566 80.572 59.7604 80.812C63.3818 81.1375 65.5256 80.8516 66.0542 80L66.3186 79.5742L65.7154 79.8771C64.9453 80.2729 64.2764 80.2946 61.8537 80.0796C54.7606 79.4341 49.4008 76.8059 45.4394 72.0308C42.422 68.4097 40.1492 63.1317 39.5584 58.4172C39.3464 56.647 39.2934 53.4243 39.4696 53.1405C39.5185 53.0616 39.7845 53.1611 40.0526 53.3276C40.9042 53.8562 43.3894 54.5688 44.9975 54.7588C46.8949 54.9754 49.4569 54.4029 51.0477 53.4241C54.4609 51.3045 56.7578 47.0063 56.8762 42.5573C56.9182 40.8355 56.5034 39.0049 55.8612 38.1038C55.3158 37.3282 53.8198 36.4651 52.7746 36.3187C52.2884 36.2572 51.1338 36.3925 50.2196 36.6334C45.4833 37.8224 40.5423 42.8605 38.2936 48.8055C38.0614 49.426 35.2576 46.1998 33.9439 43.8112C30.7385 37.8887 29.0065 29.2759 29.0709 19.3532C29.0776 17.6532 29.2268 14.9493 29.3971 13.3728C29.6883 10.757 29.6432 10.1609 29.1701 9.86724C28.9493 9.73017 27.9285 10.4947 27.5858 11.0467C26.8907 12.1664 26.5435 15.7523 26.6051 21.1433C26.7364 32.0177 29.0926 41.455 33.1872 47.3177C34.2127 48.7628 36.0132 50.7544 37.0051 51.4794C37.4961 51.8498 37.526 51.9776 37.4035 53.7586C36.9271 61.4592 40.1606 69.5184 45.8633 74.9376C46.852 75.879 50.515 78.2841 51.7364 78.7802ZM40.3357 49.3522C40.5326 48.7535 41.2212 47.4331 42.0729 46.0611C43.2809 44.08 43.6768 43.583 44.8364 42.4894C47.0553 40.3931 49.5543 39.148 51.846 38.9758C53.3312 38.8709 54.0871 39.6242 54.4214 41.514C55.0074 44.6525 53.1031 49.3037 50.5818 50.972C49.5333 51.6756 47.825 52.2101 46.4263 52.2812C44.6774 52.3534 41.8674 51.6359 40.6134 50.77C40.018 50.3566 40.0022 50.3468 40.3357 49.3522Z" fill="black"/>
<path d="M27.6857 8.24658C28.8272 8.34347 30.5908 8.5644 31.5909 8.74829C32.591 8.93218 33.4807 9.04754 33.5829 9.02362C33.8896 8.95186 33.321 6.98207 32.2406 4.32321C31.6735 2.87876 31.0895 1.70785 30.9813 1.70621C30.873 1.70457 30.798 1.61429 30.7937 1.48051C30.7964 1.08895 30.5071 1.06228 30.0497 1.41193C29.6375 1.72405 25.8298 6.13312 25.1853 7.06574C24.6876 7.7618 25.2945 8.05116 27.6857 8.24658ZM26.4894 6.3023C26.6346 6.17397 27.4608 5.4415 28.3261 4.64594C29.1816 3.86616 29.9016 3.19894 29.9272 3.19296C29.9626 3.17121 30.3677 3.75041 30.8184 4.46721C31.7793 5.98131 32.8282 7.98703 32.665 8.03868C32.4959 8.06477 26.6895 6.75424 26.4274 6.61337C26.2757 6.54103 26.3029 6.42683 26.4894 6.3023Z" fill="black"/>
</svg>
