<svg width="86" height="92" viewBox="0 0 86 92" fill="none" xmlns="http://www.w3.org/2000/svg">
<path d="M54.0243 80.5272C52.2176 82.6441 50.0012 84.5774 47.7878 85.9696C44.7055 87.8983 42.6644 88.6132 41.8076 88.093L41.3792 87.8328L42.0541 87.8301C42.92 87.8347 43.5263 87.5514 45.5896 86.2635C51.6232 82.4786 55.2139 77.7099 56.5863 71.6591C57.6389 67.0647 57.2778 61.3295 55.6716 56.8578C55.0597 55.1833 53.649 52.2853 53.3634 52.1118C53.2841 52.0637 53.0919 52.2728 52.9282 52.5425C52.4079 53.3992 50.514 55.1592 49.1658 56.0561C47.5717 57.1077 45.0279 57.7563 43.1664 57.6032C39.1636 57.2572 35.1705 54.4633 33.052 50.5492C32.2356 49.0327 31.7773 47.2126 31.9423 46.1184C32.0778 45.18 33.0214 43.7334 33.8873 43.1299C34.293 42.8551 35.3839 42.4534 36.3081 42.2546C41.0699 41.1721 47.7558 43.4296 52.4508 47.7139C52.9387 48.1622 53.9794 44.0165 54.0702 41.292C54.2492 34.5601 51.8971 26.0957 47.3503 17.2758C46.5752 15.7627 45.2188 13.4189 44.3536 12.09C42.9104 9.889 42.681 9.33705 42.97 8.86108C43.1049 8.63896 44.3612 8.85892 44.9165 9.19612C46.0429 9.88017 47.975 12.921 50.3592 17.7565C55.1621 27.5137 57.3306 36.9958 56.3316 44.0768C56.0708 45.8295 55.3662 48.4202 54.8097 49.5155C54.5394 50.068 54.5705 50.1955 55.4856 51.7284C59.3945 58.3802 60.1571 67.0303 57.5233 74.4432C57.0676 75.7301 54.8891 79.5322 54.0243 80.5272ZM50.8771 49.1253C50.4306 48.6805 49.2191 47.8145 47.8388 46.9763C45.8652 45.7562 45.2872 45.4921 43.7584 45.0414C40.8311 44.1759 38.0391 44.1961 35.9175 45.0794C34.5455 45.6579 34.2123 46.6716 34.7692 48.5082C35.6665 51.5722 39.4692 54.8586 42.4725 55.2056C43.7259 55.3587 45.4911 55.0624 46.7706 54.493C48.363 53.7661 50.5443 51.8549 51.2708 50.5154C51.6148 49.8774 51.6245 49.8615 50.8771 49.1253Z" fill="black"/>
<path d="M43.5607 6.74418C42.5866 7.34704 41.1137 8.342 40.3051 8.95847C39.4964 9.57494 38.7552 10.0803 38.6532 10.1053C38.3472 10.18 37.9631 8.1661 37.7236 5.30613C37.5758 3.7614 37.5669 2.45297 37.6626 2.40254C37.7584 2.35212 37.7845 2.23765 37.7278 2.11638C37.5482 1.76844 37.7942 1.61376 38.3603 1.71863C38.8691 1.81047 44.2596 4.01972 45.2563 4.55982C46.0151 4.95541 45.6048 5.48804 43.5607 6.74418ZM43.7479 4.46905C43.5603 4.4203 42.4922 4.14086 41.3606 3.82287C40.2448 3.51453 39.3008 3.24529 39.2753 3.25152C39.2339 3.24812 39.1347 3.94794 39.057 4.79113C38.8852 6.57611 38.8573 8.83936 39.0261 8.81161C39.1888 8.75835 43.7739 4.96261 43.9439 4.71839C44.0465 4.58523 43.9706 4.4957 43.7479 4.46905Z" fill="black"/>
</svg>
