<svg width="94" height="64" viewBox="0 0 94 64" fill="none" xmlns="http://www.w3.org/2000/svg">
<path d="M76.2786 58.0727C74.2454 55.2404 73.179 53.5449 73.231 53.2672C73.2842 52.9215 73.626 52.7911 74.7425 52.6598C76.1591 52.4517 85.0718 51.7129 85.2339 51.7699C85.2744 51.7841 85.344 52.1046 85.4053 52.5132C85.5208 53.3508 84.9713 54.9794 83.2416 58.994C81.6116 62.725 81.2653 63.127 80.0087 62.6854C79.5426 62.5216 78.6235 61.3788 76.2786 58.0727ZM81.4778 57.1445C82.1939 55.3013 82.7626 53.7478 82.7232 53.6656C82.6646 53.5084 76.4975 53.3677 74.7495 53.482L73.7498 53.5405L74.8431 54.8356C76.8637 57.1853 79.7076 60.3025 79.9306 60.3808C80.0724 60.4307 80.6001 59.3181 81.4778 57.1445Z" fill="#262626"/>
<path d="M76.4065 48.5081C76.2181 48.3964 75.8079 47.2958 75.4809 46.0879C73.7504 39.6731 69.874 35.2822 61.8765 30.6954C56.7735 27.7862 51.5176 25.5064 39.341 20.9538C26.7387 16.2517 22.5603 14.1456 18.5502 10.4592C14.9016 7.10473 11.5829 1.83961 12.4764 0.787361C12.6704 0.559493 12.7766 0.710693 13.0149 1.52309C13.8659 4.34979 17.8091 8.8097 22.0363 11.6843C24.9728 13.6955 26.8627 14.4735 40.1847 19.201C47.0889 21.6501 53.9778 24.2078 55.4886 24.8981C67.6651 30.2932 73.4851 34.6613 76.526 40.7169C78.4353 44.4847 79.2041 49.0359 77.9397 49.0698C77.5453 49.0905 76.9039 48.8423 76.4065 48.5081Z" fill="#262626"/>
</svg>
