<svg width="24" height="24" viewBox="0 0 24 24" fill="none" xmlns="http://www.w3.org/2000/svg">
<path d="M7.16675 19C5.88342 19 4.84508 20.05 4.84508 21.3333C4.84508 22.6166 5.88342 23.6666 7.16675 23.6666C8.45008 23.6666 9.50008 22.6166 9.50008 21.3333C9.50008 20.05 8.45008 19 7.16675 19ZM18.8334 19C17.5501 19 16.5117 20.05 16.5117 21.3333C16.5117 22.6166 17.5501 23.6666 18.8334 23.6666C20.1167 23.6666 21.1667 22.6166 21.1667 21.3333C21.1667 20.05 20.1167 19 18.8334 19ZM17.1418 13.1666C18.0168 13.1666 18.7867 12.6883 19.1834 11.965L23.3601 4.39331C23.7917 3.62331 23.2318 2.66665 22.3451 2.66665H5.07841L3.98175 0.333313H0.166748V2.66665H2.50008L6.70008 11.5216L5.12508 14.3683C4.27342 15.9316 5.39341 17.8333 7.16675 17.8333H21.1667V15.5H7.16675L8.45008 13.1666H17.1418ZM6.18675 4.99998H20.3617L17.1418 10.8333H8.95175L6.18675 4.99998Z" fill="#F5F5F5"/>
</svg>
