<svg width="99" height="98" viewBox="0 0 99 98" fill="none" xmlns="http://www.w3.org/2000/svg">
<path d="M72.2192 10.0297C60.3903 14.0301 49.5185 22.1648 44.2165 30.9887L43.2786 32.5582L42.0536 30.8738C39.6228 27.4859 35.163 23.4855 30.7798 20.7676C27.5067 18.7387 21.0563 15.6953 20.0419 15.6953C19.6017 15.6953 15.2759 20.1551 15.2759 20.6336C15.2759 21.093 15.7544 21.6289 16.1755 21.6289C16.3286 21.6289 17.3431 20.7102 18.3958 19.6L20.3481 17.5711L21.9751 18.2793C31.2009 22.2414 38.2063 27.7539 42.0345 34.0703C43.0106 35.6781 43.336 35.7355 44.4079 34.5105C49.0017 29.2469 55.6052 24.5574 62.1321 21.9352C67.0513 19.9637 71.8938 18.9301 77.5212 18.643L80.1243 18.509L80.5263 19.8297C80.7368 20.557 81.1196 21.8777 81.3685 22.7773L81.8278 24.4043L80.2774 24.5383C72.6786 25.2082 67.7403 26.3184 62.2278 28.6344C56.8876 30.8738 51.5665 34.3 47.8915 37.8984L46.5325 39.2383H42.5513H38.57L36.8282 37.5539C30.6267 31.5629 20.0802 25.2465 11.3903 22.318C10.2993 21.9543 9.7251 22.1457 9.7251 22.873C9.7251 23.1219 10.2802 25.2465 10.9692 27.6008C14.0317 37.9941 18.8935 56.6371 20.9989 66.0351C21.4009 67.8726 21.8028 69.5187 21.8794 69.6719C21.9368 69.825 22.913 70.5332 24.0423 71.2414C29.1145 74.3996 33.9954 78.4191 39.9481 84.3527L44.427 88.8125H49.0399L53.6528 88.7933L55.854 86.7836C62.6106 80.5629 69.9032 75.9308 78.7079 72.275C81.5981 71.0691 86.0388 69.4996 87.3978 69.1933C87.7423 69.1359 88.0868 68.9254 88.1825 68.7531C88.2782 68.5808 88.6802 58.7617 89.0821 46.9328C89.752 26.9691 89.7903 25.4379 89.4841 25.1316C89.2544 24.902 88.5462 24.768 86.4407 24.634L83.6845 24.4234L82.67 20.825C82.0958 18.8535 81.5216 17.1309 81.3685 17.016C80.9665 16.6715 74.6501 16.9203 71.7599 17.418C64.1993 18.6813 57.3278 21.5141 51.356 25.859C49.0591 27.5242 49.3653 27.0074 52.5235 23.9066C58.2849 18.3176 64.8118 14.3172 72.3149 11.8672L74.5161 11.1398L74.8224 12.7477C74.9946 13.6281 75.2434 14.4895 75.3774 14.6426C75.7028 15.0254 76.2005 15.0063 76.6024 14.566C76.9087 14.2215 76.9087 14.0875 76.5259 11.9438C76.2962 10.6805 76.0282 9.55117 75.9134 9.41718C75.588 9.03437 74.8224 9.14922 72.2192 10.0297ZM14.3571 25.3613C21.9942 28.5004 30.1481 33.6684 35.6032 38.8363C37.5173 40.6355 37.3259 40.0805 37.6704 45.2676C38.1872 53.1918 39.8524 65.748 42.0919 78.668C42.6278 81.673 43.0872 84.3336 43.1638 84.6015C43.2403 85.0035 43.1063 84.9078 42.3981 84.123C41.154 82.7258 35.7563 77.7875 33.1341 75.6246C30.6267 73.5957 27.1048 71.0308 24.827 69.5953L23.3915 68.6957L23.1427 67.509C21.688 60.2547 15.8118 37.573 12.6153 26.816C12.0028 24.768 11.9454 24.5 12.1368 24.5C12.1942 24.5 13.1896 24.8828 14.3571 25.3613ZM87.8571 26.5863C87.9337 26.6437 87.6657 35.8887 87.2829 47.1242L86.5938 67.5281L84.3735 68.2363C73.8462 71.6051 62.9552 77.8066 55.3181 84.8312C54.6673 85.4437 54.0548 85.9414 53.9591 85.9414C53.8825 85.9414 53.538 84.3527 53.1935 82.4004C51.4325 72.141 49.729 59.3742 48.3892 46.1863L47.7958 40.4824L49.3079 39.0086C56.6196 31.9266 67.97 27.1797 79.3587 26.4332C81.8661 26.2609 87.6274 26.3758 87.8571 26.5863ZM46.0923 41.1141C46.0923 41.9562 47.5661 55.4312 48.2935 61.3457C49.327 69.557 51.5665 84.3719 52.1407 86.5922L52.2556 87.0898L48.8485 87.0515L45.4224 86.9941L44.9056 84.2187C42.0919 69.1551 39.9481 53.4023 39.2782 43.009L39.1442 40.9609H42.6278C44.5228 40.9609 46.0923 41.0375 46.0923 41.1141Z" fill="#9F847A"/>
<path d="M68.6974 36.8457C67.1853 37.3051 65.8454 37.7836 65.7306 37.8984C65.5966 38.0324 65.6349 39.2 65.8837 41.918C66.2091 45.6121 66.2091 46.1289 65.7689 46.1289C65.4435 46.1289 61.3474 48.2344 60.9646 48.598C60.6583 48.9043 60.6583 49.1723 60.8497 52.3496C60.9646 54.2445 61.1368 55.9098 61.2517 56.0246C61.5771 56.4266 62.2853 56.3117 63.338 55.6801C64.3525 55.0867 66.879 53.7852 67.0321 53.7852C67.0704 53.7852 67.2044 54.6273 67.3193 55.6418C67.7021 58.666 68.4486 63.6617 68.8888 65.9969C69.463 69.0785 69.4056 69.0594 72.8892 67.5473C74.3821 66.8965 75.6454 66.2266 75.7028 66.0734C75.7603 65.9394 75.588 64.1977 75.32 62.2453C74.7458 58.2449 74.229 53.2492 74.229 51.8519V50.9332L75.5306 50.5504C76.2388 50.3398 77.3107 50.0336 77.904 49.8613C78.5739 49.6891 79.0907 49.4211 79.2056 49.1914C79.3013 49 79.397 47.5644 79.397 45.9758C79.397 43.6406 79.3396 43.0664 79.1099 42.875C78.7653 42.5879 76.7556 42.7219 74.8224 43.1812C74.1525 43.3344 73.5208 43.3918 73.4634 43.3152C73.3868 43.2195 73.2146 42.0902 73.0997 40.7695C72.7552 37.0945 72.6595 36.5586 72.3724 36.2523C71.9896 35.8695 71.7982 35.9078 68.6974 36.8457ZM71.0517 38.5109C71.1091 38.7598 71.2814 40.2527 71.4345 41.8223C71.7407 44.923 71.8173 45.2867 72.2193 45.4398C72.3724 45.4973 73.4251 45.325 74.5544 45.0762C75.6837 44.8082 76.8513 44.5977 77.1575 44.5977C77.6743 44.5977 77.6743 44.5977 77.6743 45.9758C77.6743 48.1578 77.7509 48.0621 75.2243 48.7703C72.2575 49.5934 72.2575 49.6125 72.4107 51.7754C72.6403 55.125 73.0997 59.4699 73.4634 62.0156C73.6739 63.432 73.8462 64.7336 73.8462 64.8867C73.8462 65.193 71.0325 66.5519 70.8411 66.3414C70.6689 66.1691 69.6927 60.025 69.1759 55.8906C68.6591 51.9285 68.5251 51.4883 67.7978 51.4883C67.6638 51.4883 66.4771 52.0242 65.1755 52.675L62.7829 53.8809L62.6681 52.7516C62.6107 52.1391 62.5532 51.1629 62.5532 50.6269V49.6125L64.1419 48.8469C65.0032 48.4066 66.2091 47.8516 66.8216 47.5836C67.415 47.3156 67.97 46.9902 68.0275 46.8371C68.0849 46.684 67.9892 45.2484 67.8361 43.6215C67.6638 41.9945 67.5298 40.3102 67.5298 39.8699V39.0852L68.9271 38.6641C69.6736 38.4535 70.4009 38.2238 70.4966 38.1855C70.8794 38.0516 70.9751 38.0898 71.0517 38.5109Z" fill="#9F847A"/>
</svg>
