<svg width="89" height="64" viewBox="0 0 89 64" fill="none" xmlns="http://www.w3.org/2000/svg">
<path d="M63.3013 2.62796C60.5017 4.10618 55.2319 7.966 51.6913 11.2509C48.0683 14.5359 44.4454 17.246 43.622 17.246C42.7162 17.246 41.4811 17.4102 40.9048 17.6566C40.246 17.903 37.6935 16.7532 35.2233 15.0286C27.895 10.0191 14.3089 7.39113 8.70976 9.93696C7.63934 10.4297 5.58083 12.9755 4.18105 15.6035C0.887444 21.5164 0.640423 27.2651 3.35765 32.1925C5.91019 36.7093 13.4855 40.5691 18.5082 39.9942C22.8723 39.5015 28.7184 35.5595 32.5884 30.3858C34.2352 28.1684 35.7173 26.4438 35.882 26.5259C35.9643 26.6902 35.7173 28.0863 35.3056 29.6466C34.8116 31.1249 34.4822 33.6707 34.4822 35.1489C34.4822 37.859 31.9297 43.7719 30.3652 44.7574C29.9535 45.0038 28.142 44.8395 26.3305 44.2647C20.0727 42.3758 13.8148 46.0714 11.8387 52.8055C10.3566 57.8151 8.3804 59.3754 3.43999 59.2933C-0.182978 59.2112 -0.677019 59.786 0.722763 62.4961C1.95787 64.6313 6.32189 64.4671 9.03912 62.1676C10.2742 61.1821 12.0034 58.8827 12.9091 57.076C15.7087 51.4915 18.1789 49.6848 24.272 48.5351C35.4703 46.482 38.6816 43.0328 39.8343 32.0282C40.4107 25.7047 42.4692 23.1589 45.4335 24.8013C49.8798 27.1008 56.7141 35.4774 60.4194 43.1149C64.207 50.7524 66.6772 53.3804 70.1355 53.3804C70.7119 53.3804 73.1821 53.9553 75.4876 54.6122C78.7812 55.5977 80.0987 56.5011 81.0044 58.3899C81.7455 59.7039 82.0748 61.1 81.9101 61.5106C81.4984 62.1676 83.8863 63.2352 85.8625 63.2352C87.2622 63.2352 85.6154 56.5011 83.804 54.5301C81.0044 51.5737 75.5699 49.2742 71.2883 49.2742C66.3479 49.2742 64.701 47.7139 62.5602 40.8155C60.0077 32.4388 58.6902 29.893 54.9849 25.869L51.4443 22.0913L55.8907 24.9656C58.3609 26.6081 60.6664 27.922 60.9957 27.922C61.3251 27.922 62.9719 28.8254 64.6187 29.9751C67.83 32.1925 71.4529 32.521 77.8755 31.2891C88.0856 29.3181 92.1203 20.3667 86.3565 12.7292C84.9567 10.9224 82.8982 7.55538 81.8278 5.25591C79.6046 0.49274 78.8636 0 72.8527 0C69.5591 0 67.2536 0.656988 63.3013 2.62796ZM78.2048 2.46371C79.0282 2.95645 79.7693 3.85981 79.7693 4.5168C79.7693 5.50228 79.2753 5.50229 76.7227 4.35255C74.7465 3.61344 72.194 3.28494 69.7238 3.44919C65.3598 3.94193 64.7834 3.61344 67.6653 2.46371C70.2178 1.47823 76.2287 1.47823 78.2048 2.46371ZM76.4757 6.15928C82.4865 9.27997 86.0271 19.2169 82.5689 23.0767C80.0163 25.869 75.1582 27.922 71.1236 27.922C67.7476 27.922 66.9242 27.5936 64.701 24.9656C61.9015 21.8449 55.3966 18.0672 52.6794 18.0672C51.4443 18.0672 52.5147 16.589 57.1258 11.9901C60.5017 8.62298 63.713 5.74866 64.2893 5.50229C66.5949 4.59892 74.1702 5.00954 76.4757 6.15928ZM55.8907 11.1688C52.5971 14.4538 47.6566 17.9851 47.6566 16.9175C47.6566 16.3426 58.3609 7.39113 59.0196 7.39113C59.2666 7.39113 57.8668 9.11573 55.8907 11.1688ZM14.3912 11.9079C12.168 12.5649 10.0272 13.3862 9.53316 13.8789C7.88636 15.5214 7.30997 14.7823 8.62742 12.7292C9.78018 10.9224 10.5212 10.6761 14.2265 10.7582L18.4259 10.8403L14.3912 11.9079ZM31.6003 15.1108C35.4703 17.1638 36.129 17.7387 34.6469 17.903C32.8354 18.1493 24.3544 13.8789 23.284 12.1543C22.4606 10.9224 25.8365 12.0722 31.6003 15.1108ZM27.0716 16.8354C29.5418 18.3957 32.3414 19.7097 33.4118 19.7097C34.4822 19.7097 35.3056 20.0382 35.3056 20.5309C35.3056 20.9415 34.8939 21.3522 34.4822 21.3522C33.9882 21.3522 31.1886 24.6371 28.2244 28.6612C22.4606 36.4629 19.9904 38.1054 16.3674 36.7914C11.674 35.0668 5.66317 26.9366 5.66317 22.3376C5.66317 16.5069 9.03912 14.0431 17.1908 14.0431C21.8842 14.0431 23.1193 14.3716 27.0716 16.8354ZM87.1799 20.3667C87.1799 23.0768 86.6859 24.3907 85.0391 26.0332C82.3218 28.7433 81.7455 28.0042 83.804 24.555C84.8744 22.8304 85.5331 20.2845 85.5331 18.0672C85.5331 15.3571 85.7801 14.7001 86.3565 15.6035C86.7682 16.2605 87.1799 18.3957 87.1799 20.3667ZM44.1984 19.9561C44.4454 20.9415 43.869 21.3522 42.3045 21.3522C40.4107 21.3522 40.246 21.1879 41.0694 19.6276C42.1399 17.7387 43.7867 17.903 44.1984 19.9561ZM55.3143 20.6952C59.5136 22.4198 63.3013 25.1298 63.3013 26.4438C63.3013 27.0187 58.1962 24.4729 56.22 22.9125C55.6436 22.4198 53.8322 21.4343 52.103 20.5309C47.739 18.3957 50.0445 18.4778 55.3143 20.6952ZM35.635 24.4729C33.8235 26.1974 31.0239 29.4003 29.2125 31.5355C27.4833 33.6707 25.9188 35.2311 25.6718 34.9847C25.1778 34.4919 32.3414 25.6226 35.5526 22.8304C39.2579 19.5454 39.3403 20.6952 35.635 24.4729ZM6.98061 30.6321C7.80402 31.6176 9.6155 33.6707 11.0153 35.2311L13.4855 38.0233L9.78018 35.9702C5.33381 33.5065 3.19297 29.7288 3.27531 24.6371V20.9415L4.34573 24.8835C4.92211 27.0187 6.07487 29.5645 6.98061 30.6321ZM48.3154 22.5019C50.7856 23.8159 54.9026 28.0042 56.9611 31.3712C59.2666 35.0668 58.5255 34.9026 55.0673 30.9606C53.2558 28.9075 50.1268 26.1974 48.0683 24.8013C46.0922 23.4874 44.6101 22.1734 44.9394 21.8449C45.6805 21.1879 45.7628 21.1879 48.3154 22.5019ZM38.5169 28.4969C38.1052 30.7142 37.6111 34.1634 37.3641 36.2987C37.1171 38.4339 36.129 40.9797 35.2233 42.0473L33.5765 43.9362L34.5646 41.9652C35.0586 40.8976 35.7997 37.5305 36.2114 34.5741C36.7877 29.4824 38.1052 24.6371 38.8462 24.6371C39.0109 24.6371 38.8462 26.3617 38.5169 28.4969ZM79.7693 27.8399C79.7693 28.8254 75.0759 30.3858 72.441 30.3036C70.9589 30.2215 71.4529 29.893 74.2525 29.1539C76.4757 28.579 78.4519 27.8399 78.7812 27.5936C79.4399 26.9366 79.7693 27.0187 79.7693 27.8399ZM24.6014 45.9893C25.5895 46.6462 25.4248 46.8105 23.6957 46.8105C22.5429 46.8105 19.8257 47.7139 17.6848 48.7815C14.1442 50.5882 13.8972 50.5882 15.297 49.11C16.6967 47.4675 20.8961 45.2501 22.5429 45.2501C23.0369 45.168 23.9427 45.5786 24.6014 45.9893ZM76.8874 52.0664C80.9221 53.791 80.5104 54.3659 76.311 52.9698C74.3348 52.3128 72.0293 51.6558 71.1236 51.4915C69.9708 51.2452 70.1355 51.0809 71.7823 50.9988C73.0174 50.9988 75.3229 51.4915 76.8874 52.0664ZM84.3803 59.4575C84.792 61.1821 84.7097 61.6749 83.9686 61.2643C83.4746 60.9358 83.0629 60.0324 83.0629 59.2933C83.0629 58.4721 82.4865 56.9117 81.7455 55.8441L80.3457 53.791L82.0748 55.4335C82.9806 56.3368 84.051 58.1436 84.3803 59.4575ZM5.82785 61.757C4.92211 62.6604 0.722763 62.0034 0.722763 60.9358C0.722763 60.6073 2.04021 60.443 3.68701 60.6073C5.66317 60.8536 6.32189 61.2643 5.82785 61.757Z" fill="#9F847A"/>
</svg>
