<svg width="100" height="64" viewBox="0 0 100 64" fill="none" xmlns="http://www.w3.org/2000/svg">
<path d="M88.1249 1.63136C87.894 2.01618 86.5856 2.40101 85.2772 2.40101C79.12 2.40101 70.346 5.86443 60.5715 12.0986C55.4148 15.4081 55.3378 15.4851 54.1064 13.9458C52.6441 12.3295 48.2571 11.8677 46.256 13.0991C45.4863 13.6379 44.4858 13.407 43.1774 12.4834C40.1757 10.3284 33.6337 7.17284 27.0917 4.70996C21.0884 2.32404 17.702 1.78528 17.702 3.17066C17.702 3.55548 18.0868 3.9403 18.6255 3.9403C20.2418 3.9403 41.9459 14.0997 43.7161 15.716C44.6397 16.5626 45.4094 17.9479 45.4094 18.6406C45.4094 19.4103 44.6397 20.4878 43.7161 20.9496C40.9454 22.4119 31.1708 29.8006 26.7069 33.7258C20.0879 39.6521 18.1637 40.9605 16.9323 40.4217C16.3166 40.1139 14.5464 39.6521 13.0071 39.3442C11.5448 39.1133 9.85152 38.5746 9.38973 38.2667C7.77347 37.3431 8.38919 33.4949 10.7751 28.9539C12.1605 26.2602 13.0841 23.4894 13.0071 21.7192V18.9485L11.6217 22.0271C10.8521 23.7203 9.31277 26.4141 8.23526 28.1073C4.31004 33.8027 4.54094 39.4981 8.69705 41.2683L11.1599 42.3458L5.61845 44.8857C2.53985 46.2711 0 47.6564 0 47.9643C0 49.6575 6.92685 47.2716 9.77456 44.5778C11.8526 42.6537 16.9323 40.6526 16.9323 41.8071C16.9323 42.8846 23.5513 38.8824 28.0922 35.1111C30.2473 33.3409 34.4034 30.1854 37.328 28.1843L42.7156 24.413L39.4831 28.0304C37.6359 30.0314 36.1736 31.9556 36.1736 32.4174C36.1736 33.7258 38.7904 33.264 40.7915 31.5707C42.6386 30.0314 42.4077 30.0314 38.7134 31.3399C37.9438 31.6477 38.7904 30.3393 40.6375 28.4921C42.4077 26.568 43.8701 24.6439 43.8701 24.1821C43.8701 22.5658 45.7942 22.6428 47.1026 24.336C48.334 25.9523 48.1801 26.2602 41.715 35.9578C34.6343 46.425 22.7816 59.663 21.0114 59.0473C20.4727 58.8164 20.0109 59.1242 20.0109 59.7399C20.0109 61.2792 20.7036 61.2023 23.8592 59.2782C29.6315 55.7378 43.0234 39.1903 48.0262 29.4927C49.2576 27.1068 50.7969 26.1832 50.7969 27.8764C50.7969 29.2618 56.8002 38.5746 60.7254 43.1155C65.4203 48.7339 75.6566 56.2765 78.5043 56.2765C81.5059 56.2765 82.1217 54.9681 79.4279 54.3524C75.6566 53.5827 64.1888 43.5773 59.1861 36.8044C56.6463 33.4179 54.0294 29.5697 53.3368 28.2612C52.1053 25.9523 52.1823 25.8753 54.953 23.4894C57.7238 21.1035 58.4164 19.3333 57.4929 17.0244C56.8771 15.4851 74.4252 6.78801 81.5829 5.01782C84.3537 4.4021 86.8935 3.47851 87.3553 3.09369C88.5867 1.93921 93.6664 2.32404 95.4366 3.78638C97.8225 5.7105 98.2843 11.0981 96.5911 16.1777C94.9748 21.1805 95.4366 22.8737 97.5916 19.3333C101.055 13.7149 100.747 6.09533 96.899 2.8628C94.4361 0.784742 89.1255 0.0920555 88.1249 1.63136ZM52.1053 15.1772C52.3362 15.7929 53.0289 16.1777 53.5677 15.9468C54.1834 15.716 55.1839 16.4086 55.9536 17.5631C57.262 19.4872 57.185 19.5642 54.5682 21.7192C51.4126 24.336 51.1817 24.336 49.1037 22.4889C47.2565 20.6417 46.4099 15.562 47.8722 14.6384C49.4885 13.5609 51.5666 13.8688 52.1053 15.1772Z" fill="#9F847A"/>
<path d="M11.6216 3.55554C7.92728 5.55663 6.15709 11.7138 8.08121 15.4081C9.54355 18.2559 12.0064 18.7946 11.1598 16.0239C9.92837 12.0217 9.92837 10.8672 11.1598 8.32737C11.8525 6.86503 13.2379 5.32573 14.3154 4.78698C15.3929 4.32519 16.0086 3.55554 15.7777 3.17071C15.162 2.17017 13.9306 2.3241 11.6216 3.55554Z" fill="#9F847A"/>
<path d="M69.6537 13.6379C64.1122 14.7924 58.4938 16.5626 58.4938 17.1014C58.4938 17.4862 58.7247 17.794 59.1095 17.794C59.8022 17.794 69.1149 15.639 71.116 15.0233C72.0396 14.7154 72.3475 14.8694 72.0396 15.4081C71.27 16.5626 72.5784 16.4856 73.7328 15.3312C75.657 13.407 74.1946 12.7143 69.6537 13.6379Z" fill="#9F847A"/>
<path d="M69.6532 17.0244C69.3453 17.4862 70.115 17.794 71.5004 17.794C72.7318 17.794 74.0402 18.1788 74.2711 18.5637C74.579 19.0255 74.502 19.3333 74.1172 19.2564C71.8082 18.8715 66.9594 19.4872 67.3443 20.103C68.3448 21.7962 76.9649 20.4108 76.9649 18.5637C76.9649 18.1788 76.0413 17.6401 74.8868 17.3322C73.6554 17.1013 72.1931 16.7165 71.4234 16.5626C70.7307 16.3317 69.9611 16.5626 69.6532 17.0244Z" fill="#9F847A"/>
<path d="M23.1665 17.7171C22.6278 18.1019 22.3199 18.7176 22.5508 19.1024C22.8587 19.5642 22.012 20.6417 20.7806 21.5653C17.5481 23.8743 17.779 25.0288 21.3963 24.49C24.7058 24.0282 32.3254 20.7957 31.0939 20.3339C30.6321 20.18 28.4001 20.7187 26.2451 21.6423C21.1654 23.5664 19.7801 23.5664 22.5508 21.5653C23.7053 20.7187 24.398 19.6412 24.1671 19.1794C23.8592 18.7176 25.7064 18.4867 29.3237 18.5637C36.4045 18.7946 38.0208 18.5637 35.0191 17.794C31.7866 16.9474 24.4749 16.9474 23.1665 17.7171Z" fill="#9F847A"/>
<path d="M59.648 21.5653C59.1093 22.5658 74.4253 32.4173 76.5803 32.4173C78.1196 32.4173 75.9646 30.4932 69.4996 26.0292C61.957 20.8726 60.4946 20.2569 59.648 21.5653Z" fill="#9F847A"/>
<path d="M94.3593 23.6433C94.1284 24.336 93.8975 26.491 93.8975 28.5691C93.8975 30.5702 93.6666 33.3409 93.4357 34.6493L92.9739 37.0352H87.3555C82.8915 37.0352 81.3522 36.7274 79.736 35.419C78.1197 34.1875 77.7349 34.1106 77.7349 35.0341C77.7349 35.6499 78.6584 36.8813 79.736 37.7279C81.4292 39.0363 82.8915 39.3442 87.4325 39.3442C95.052 39.3442 95.4368 38.8824 95.4368 29.6466C95.4368 22.4119 95.2829 21.3344 94.3593 23.6433Z" fill="#9F847A"/>
<path d="M59.3401 29.3388C63.4962 33.495 63.8811 33.7258 63.8811 32.1096C63.8811 30.8012 58.1087 25.4906 56.5694 25.4906C55.9537 25.4906 57.1851 27.1838 59.3401 29.3388Z" fill="#9F847A"/>
<path d="M53.8759 26.799C53.9528 28.0304 57.4162 33.4949 58.3398 33.8028C58.8786 33.9567 58.1859 32.3404 56.8775 30.1854C54.4916 26.3372 53.8759 25.6445 53.8759 26.799Z" fill="#9F847A"/>
<path d="M86.6629 41.8072C86.9707 42.3459 87.7404 43.4234 88.4331 44.2701C89.5875 45.6554 89.5106 45.6554 85.0466 45.1167C78.4276 44.2701 77.504 44.2701 77.1962 45.1936C76.8114 46.4251 86.2011 48.1183 89.6645 47.5026C92.974 46.8869 93.1279 45.5015 89.9724 42.8847C87.5095 40.8066 85.7393 40.2679 86.6629 41.8072Z" fill="#9F847A"/>
<path d="M77.5039 47.5025C75.7337 49.2727 84.8156 58.7394 87.0476 57.431C87.5863 57.0462 86.4318 55.5838 84.0459 53.5058C81.8909 51.5817 79.8898 49.4266 79.6589 48.58C79.1971 47.0407 78.3505 46.6559 77.5039 47.5025Z" fill="#9F847A"/>
<path d="M3.84845 50.735C3.84845 51.5047 6.69616 52.7361 10.0826 53.5058C11.2371 53.7367 12.6994 53.5058 13.4691 52.89C14.8544 51.8895 14.7775 51.8125 12.6225 51.4277C6.69616 50.2732 3.84845 50.0423 3.84845 50.735Z" fill="#9F847A"/>
<path d="M15.0852 57.1232C14.3926 60.5097 14.5465 63.2034 15.3161 63.2034C16.0088 63.2034 16.9324 59.5091 16.9324 56.5844C16.9324 53.8907 15.701 54.3525 15.0852 57.1232Z" fill="#9F847A"/>
</svg>
