<svg width="49" height="48" viewBox="0 0 49 48" fill="none" xmlns="http://www.w3.org/2000/svg">
<path d="M42.3537 1.81876C40.1037 3.00001 38.3505 4.32189 36.213 6.45938C33.6443 9.03751 31.5443 11.7 28.6755 16.0313C25.338 21.0656 22.9943 25.1063 20.313 30.4125L19.0474 32.9344L18.5974 32.0719C17.1724 29.3813 15.2505 26.7188 13.638 25.2094C12.7474 24.3656 12.1099 23.9438 11.1724 23.55C10.638 23.325 10.4693 23.2969 9.36304 23.2969C8.16304 23.2969 8.12554 23.3063 7.49741 23.6156C5.92241 24.3938 4.81616 26.1656 4.81616 27.9375C4.81616 28.6125 5.14429 29.7375 5.58491 30.5906C5.94116 31.2656 13.6662 42.3281 15.1662 44.2969C16.1974 45.6469 16.9193 46.2469 17.9505 46.5938C19.4974 47.1281 21.588 46.4625 22.9287 45.0094C24.0255 43.8281 24.6068 42.6844 25.8068 39.3094C30.1849 27.0844 35.7349 15.1594 42.0818 4.31251C42.7943 3.10314 43.4787 1.94064 43.5912 1.73439C43.713 1.52814 43.8162 1.33126 43.8162 1.28439C43.8162 1.11564 43.4037 1.26563 42.3537 1.81876Z" fill="#9F847A"/>
</svg>
