<svg width="143" height="44" viewBox="0 0 143 44" fill="none" xmlns="http://www.w3.org/2000/svg">
<path d="M134.96 38.92C134.224 38.92 133.568 38.712 132.992 38.296C132.448 37.88 132.176 37.032 132.176 35.752C132.176 35.208 132.208 34.696 132.272 34.216C132.368 33.736 132.48 33.224 132.608 32.68C132.32 33.16 131.92 33.752 131.408 34.456C130.896 35.16 130.32 35.848 129.68 36.52C129.072 37.192 128.432 37.752 127.76 38.2C127.12 38.648 126.512 38.872 125.936 38.872C125.104 38.872 124.432 38.504 123.92 37.768C123.408 37 123.152 36.008 123.152 34.792C123.152 33.48 123.456 32.072 124.064 30.568C124.672 29.064 125.504 27.624 126.56 26.248C127.616 24.872 128.832 23.752 130.208 22.888C131.584 22.024 133.024 21.592 134.528 21.592C135.264 21.592 135.968 21.72 136.64 21.976C137.312 22.2 137.904 22.584 138.416 23.128C138.64 23.352 138.752 23.608 138.752 23.896C138.752 24.088 138.672 24.248 138.512 24.376C138.352 24.504 138.144 24.536 137.888 24.472C137.536 23.352 136.784 22.792 135.632 22.792C135.088 22.792 134.464 22.968 133.76 23.32C132.896 23.768 131.968 24.488 130.976 25.48C130.016 26.44 129.104 27.544 128.24 28.792C127.408 30.008 126.72 31.24 126.176 32.488C125.632 33.736 125.36 34.872 125.36 35.896C125.36 36.952 125.76 37.48 126.56 37.48C127.264 37.48 127.984 37.144 128.72 36.472C129.488 35.8 130.208 34.968 130.88 33.976C131.584 32.952 132.224 31.944 132.8 30.952C133.376 29.96 133.824 29.16 134.144 28.552C134.624 27.688 135.072 26.968 135.488 26.392C135.904 25.816 136.496 25.528 137.264 25.528C137.616 25.528 137.968 25.576 138.32 25.672C138.672 25.768 139.04 25.784 139.424 25.72C138.464 26.68 137.616 27.816 136.88 29.128C136.176 30.44 135.632 31.736 135.248 33.016C134.864 34.264 134.672 35.32 134.672 36.184C134.672 37.144 134.992 37.624 135.632 37.624C136.144 37.624 136.688 37.336 137.264 36.76C137.872 36.184 138.448 35.464 138.992 34.6C139.568 33.704 140.096 32.808 140.576 31.912C141.056 30.984 141.44 30.184 141.728 29.512C141.888 29.512 142.016 29.528 142.112 29.56C142.24 29.592 142.304 29.72 142.304 29.944C142.272 30.072 142.208 30.216 142.112 30.376C142.048 30.504 141.936 30.744 141.776 31.096C141.52 31.608 141.168 32.296 140.72 33.16C140.272 34.024 139.744 34.904 139.136 35.8C138.528 36.664 137.872 37.4 137.168 38.008C136.464 38.616 135.728 38.92 134.96 38.92Z" fill="#262626"/>
<path d="M106.816 38.056C106.784 38.376 106.592 38.6 106.24 38.728C105.92 38.824 105.6 38.872 105.28 38.872C104.768 38.872 104.384 38.952 104.128 39.112C104.128 38.472 104.304 37.576 104.656 36.424C105.008 35.24 105.424 33.976 105.904 32.632C106.416 31.256 106.928 29.976 107.44 28.792C107.984 27.576 108.432 26.632 108.784 25.96C109.552 24.552 110.192 23.656 110.704 23.272C111.248 22.888 111.872 22.696 112.576 22.696C113.216 22.696 113.664 22.728 113.92 22.792C114.208 22.824 114.416 22.84 114.544 22.84C113.84 23.224 113.008 24.12 112.048 25.528C111.12 26.936 110.24 28.504 109.408 30.232C109.664 29.976 109.952 29.768 110.272 29.608C110.624 29.448 111.024 29.368 111.472 29.368C112.08 29.368 112.608 29.48 113.056 29.704C113.504 29.896 114.128 29.992 114.928 29.992C115.536 29.992 115.936 29.8 116.128 29.416C116.64 28.264 117.168 27.144 117.712 26.056C118.256 24.936 118.704 24.008 119.056 23.272C119.248 22.856 119.504 22.584 119.824 22.456C120.176 22.328 120.56 22.264 120.976 22.264H123.568C123.024 22.712 122.56 23.128 122.176 23.512C121.824 23.864 121.472 24.296 121.12 24.808C120.8 25.32 120.384 26.056 119.872 27.016C119.456 27.816 118.96 28.856 118.384 30.136C117.808 31.416 117.376 32.552 117.088 33.544C116.96 33.896 116.848 34.312 116.752 34.792C116.688 35.272 116.656 35.72 116.656 36.136C116.656 36.648 116.736 37.08 116.896 37.432C117.056 37.784 117.328 37.96 117.712 37.96C118.32 37.96 118.944 37.704 119.584 37.192C120.224 36.648 120.848 35.96 121.456 35.128C122.064 34.264 122.624 33.336 123.136 32.344C123.68 31.352 124.144 30.408 124.528 29.512C124.784 29.512 124.944 29.544 125.008 29.608C125.072 29.672 125.104 29.784 125.104 29.944C124.72 30.904 124.24 31.928 123.664 33.016C123.12 34.072 122.48 35.064 121.744 35.992C121.04 36.92 120.256 37.688 119.392 38.296C118.56 38.872 117.664 39.16 116.704 39.16C115.744 39.16 115.056 38.872 114.64 38.296C114.256 37.72 114.064 37 114.064 36.136C114.064 35.688 114.112 35.208 114.208 34.696C114.336 34.184 114.48 33.672 114.64 33.16C114.768 32.776 114.912 32.376 115.072 31.96C115.232 31.512 115.408 31.08 115.6 30.664C115.408 30.92 115.168 31.128 114.88 31.288C114.592 31.416 114.224 31.48 113.776 31.48C113.328 31.48 112.96 31.416 112.672 31.288C112.384 31.16 112.08 31.032 111.76 30.904C111.44 30.776 111.024 30.712 110.512 30.712C110.192 30.712 109.856 30.776 109.504 30.904C109.184 31.032 108.928 31.32 108.736 31.768C108.256 32.888 107.84 33.992 107.488 35.08C107.168 36.168 106.944 37.16 106.816 38.056Z" fill="#262626"/>
<path d="M100.413 38.92C99.6772 38.92 99.0212 38.712 98.4452 38.296C97.9012 37.88 97.6292 37.032 97.6292 35.752C97.6292 35.208 97.6612 34.696 97.7252 34.216C97.8212 33.736 97.9332 33.224 98.0612 32.68C97.7732 33.16 97.3732 33.752 96.8612 34.456C96.3492 35.16 95.7732 35.848 95.1332 36.52C94.5252 37.192 93.8852 37.752 93.2132 38.2C92.5732 38.648 91.9652 38.872 91.3892 38.872C90.5572 38.872 89.8852 38.504 89.3732 37.768C88.8612 37 88.6052 36.008 88.6052 34.792C88.6052 33.48 88.9092 32.072 89.5172 30.568C90.1252 29.064 90.9572 27.624 92.0132 26.248C93.0692 24.872 94.2852 23.752 95.6612 22.888C97.0372 22.024 98.4772 21.592 99.9812 21.592C100.717 21.592 101.421 21.72 102.093 21.976C102.765 22.2 103.357 22.584 103.869 23.128C104.093 23.352 104.205 23.608 104.205 23.896C104.205 24.088 104.125 24.248 103.965 24.376C103.805 24.504 103.597 24.536 103.341 24.472C102.989 23.352 102.237 22.792 101.085 22.792C100.541 22.792 99.9172 22.968 99.2132 23.32C98.3492 23.768 97.4212 24.488 96.4292 25.48C95.4692 26.44 94.5572 27.544 93.6932 28.792C92.8612 30.008 92.1732 31.24 91.6292 32.488C91.0852 33.736 90.8132 34.872 90.8132 35.896C90.8132 36.952 91.2132 37.48 92.0132 37.48C92.7172 37.48 93.4372 37.144 94.1732 36.472C94.9412 35.8 95.6612 34.968 96.3332 33.976C97.0372 32.952 97.6772 31.944 98.2532 30.952C98.8292 29.96 99.2772 29.16 99.5972 28.552C100.077 27.688 100.525 26.968 100.941 26.392C101.357 25.816 101.949 25.528 102.717 25.528C103.069 25.528 103.421 25.576 103.773 25.672C104.125 25.768 104.493 25.784 104.877 25.72C103.917 26.68 103.069 27.816 102.333 29.128C101.629 30.44 101.085 31.736 100.701 33.016C100.317 34.264 100.125 35.32 100.125 36.184C100.125 37.144 100.445 37.624 101.085 37.624C101.597 37.624 102.141 37.336 102.717 36.76C103.325 36.184 103.901 35.464 104.445 34.6C105.021 33.704 105.549 32.808 106.029 31.912C106.509 30.984 106.893 30.184 107.181 29.512C107.341 29.512 107.469 29.528 107.565 29.56C107.693 29.592 107.757 29.72 107.757 29.944C107.725 30.072 107.661 30.216 107.565 30.376C107.501 30.504 107.389 30.744 107.229 31.096C106.973 31.608 106.621 32.296 106.173 33.16C105.725 34.024 105.197 34.904 104.589 35.8C103.981 36.664 103.325 37.4 102.621 38.008C101.917 38.616 101.181 38.92 100.413 38.92Z" fill="#262626"/>
<path d="M67.5745 33.208V33.16C66.5185 34.76 65.2865 36.136 63.8785 37.288C62.5025 38.408 61.1745 38.968 59.8945 38.968C58.9025 38.968 58.1345 38.712 57.5905 38.2C57.0465 37.688 56.7745 37.064 56.7745 36.328C56.7745 35.464 57.0785 34.664 57.6865 33.928C58.2945 33.192 58.9505 32.824 59.6545 32.824C59.9105 32.824 60.1345 32.92 60.3265 33.112C59.8785 33.624 59.4945 34.232 59.1745 34.936C58.8545 35.608 58.6945 36.216 58.6945 36.76V36.904C58.6945 37.576 58.9825 37.912 59.5585 37.912C60.0385 37.912 60.5985 37.688 61.2385 37.24C61.8785 36.76 62.5025 36.2 63.1105 35.56C63.7505 34.888 64.2465 34.296 64.5985 33.784C64.9185 33.336 65.3185 32.664 65.7985 31.768C66.2785 30.872 66.7105 29.864 67.0945 28.744C67.4785 27.624 67.6705 26.536 67.6705 25.48C67.7025 24.648 67.5745 24.008 67.2865 23.56C67.0305 23.112 66.6785 22.888 66.2305 22.888C65.5905 22.888 65.0145 23.128 64.5025 23.608C63.9905 24.088 63.4465 24.984 62.8705 26.296C62.4545 26.328 62.1825 26.264 62.0545 26.104C61.9265 25.944 61.8625 25.768 61.8625 25.576C61.8625 25.192 62.1345 24.712 62.6785 24.136C63.2225 23.56 63.8945 23.048 64.6945 22.6C65.4945 22.12 66.2625 21.88 66.9985 21.88C68.0225 21.88 68.8225 22.216 69.3985 22.888C70.0065 23.56 70.3105 24.488 70.3105 25.672C70.3105 26.312 70.2145 27 70.0225 27.736C69.8625 28.44 69.6225 29.16 69.3025 29.896C69.9425 29.128 70.6465 28.328 71.4145 27.496C72.1825 26.632 72.9185 25.832 73.6225 25.096C74.3585 24.328 74.9985 23.704 75.5425 23.224C76.0865 22.712 76.4545 22.44 76.6465 22.408C77.0625 22.536 77.3025 22.744 77.3665 23.032C77.4625 23.32 77.4945 23.592 77.4625 23.848C77.4305 24.072 77.3505 24.36 77.2225 24.712C77.1265 25.032 76.9025 25.48 76.5505 26.056C75.9425 27.08 75.3505 28.184 74.7745 29.368C74.1985 30.52 73.5425 31.992 72.8065 33.784C74.2785 31.672 75.8145 29.752 77.4145 28.024C79.0465 26.296 80.6305 24.872 82.1665 23.752C82.9025 23.144 83.6385 22.664 84.3745 22.312C85.1425 21.96 85.8305 21.784 86.4385 21.784C87.2065 21.784 87.8305 22.04 88.3105 22.552C88.7905 23.064 89.0305 23.688 89.0305 24.424C89.0305 25.032 88.8705 25.608 88.5505 26.152C88.2305 26.696 87.8625 27.144 87.4465 27.496C87.0305 27.816 86.6785 27.976 86.3905 27.976C86.1985 27.976 86.0065 27.88 85.8145 27.688C86.0705 27.336 86.3425 26.936 86.6305 26.488C86.9505 26.04 87.1745 25.608 87.3025 25.192C87.3985 24.808 87.4465 24.424 87.4465 24.04C87.4465 23.592 87.3505 23.288 87.1585 23.128C86.9665 22.936 86.6945 22.84 86.3425 22.84C85.6385 22.84 84.9025 23.224 84.1345 23.992C83.3665 24.76 82.6625 25.752 82.0225 26.968C81.3825 28.152 80.8545 29.416 80.4385 30.76C80.0225 32.104 79.7985 33.336 79.7665 34.456C79.7345 35.288 79.8625 36.088 80.1505 36.856C80.4385 37.592 81.0145 37.96 81.8785 37.96C82.8705 37.96 83.8465 37.56 84.8065 36.76C85.7985 35.96 86.7425 34.92 87.6385 33.64C88.5345 32.328 89.3185 30.952 89.9905 29.512C90.1185 29.512 90.2465 29.544 90.3745 29.608C90.5025 29.64 90.5665 29.752 90.5665 29.944C89.8625 31.544 89.0145 33.032 88.0225 34.408C87.0625 35.784 85.9905 36.888 84.8065 37.72C83.6545 38.552 82.4385 38.968 81.1585 38.968C79.8145 38.968 78.7905 38.52 78.0865 37.624C77.4145 36.728 77.0785 35.64 77.0785 34.36C77.0785 33.24 77.3025 31.992 77.7505 30.616C78.2305 29.24 78.8065 27.992 79.4785 26.872C78.3265 27.928 77.1905 29.128 76.0705 30.472C74.9825 31.816 74.0225 33.192 73.1905 34.6C72.3585 36.008 71.7825 37.304 71.4625 38.488C71.0145 38.488 70.7105 38.296 70.5505 37.912C70.3905 37.496 70.3105 37.064 70.3105 36.616C70.3105 35.688 70.5185 34.616 70.9345 33.4C71.3505 32.184 71.7505 31.16 72.1345 30.328C72.6785 29.208 73.1745 28.232 73.6225 27.4C74.0705 26.536 74.4545 25.816 74.7745 25.24C74.6465 25.24 74.3745 25.448 73.9585 25.864C73.5745 26.248 73.1265 26.728 72.6145 27.304C72.1345 27.88 71.6865 28.408 71.2705 28.888C70.3105 29.976 69.5265 30.856 68.9185 31.528C68.3105 32.2 67.8625 32.76 67.5745 33.208Z" fill="#262626"/>
<path d="M53.185 38.776C52.001 38.776 51.169 38.44 50.689 37.768C50.209 37.064 49.969 36.264 49.969 35.368C49.969 34.888 50.017 34.408 50.113 33.928C50.241 33.416 50.385 32.952 50.545 32.536L53.761 24.328C53.857 24.072 53.905 23.848 53.905 23.656C53.905 23.336 53.825 23.064 53.665 22.84C53.505 22.584 53.393 22.408 53.329 22.312L55.969 22.216C56.449 22.184 56.785 22.248 56.977 22.408C57.201 22.536 57.313 22.696 57.313 22.888C57.313 23.08 57.201 23.432 56.977 23.944C56.657 24.712 56.225 25.672 55.681 26.824C55.137 27.976 54.593 29.16 54.049 30.376C53.537 31.592 53.089 32.728 52.705 33.784C52.353 34.84 52.177 35.656 52.177 36.232C52.177 36.648 52.273 37 52.465 37.288C52.689 37.576 53.057 37.72 53.569 37.72C54.401 37.72 55.217 37.32 56.017 36.52C56.817 35.688 57.553 34.728 58.225 33.64C58.673 33.64 58.897 33.768 58.897 34.024C58.193 35.272 57.345 36.376 56.353 37.336C55.361 38.296 54.305 38.776 53.185 38.776ZM57.457 19.24C57.041 19.24 56.673 19.08 56.353 18.76C56.065 18.44 55.921 18.056 55.921 17.608C55.921 17.064 56.145 16.584 56.593 16.168C57.041 15.72 57.537 15.496 58.081 15.496C58.529 15.496 58.913 15.64 59.233 15.928C59.553 16.216 59.713 16.584 59.713 17.032C59.713 17.608 59.489 18.12 59.041 18.568C58.593 19.016 58.065 19.24 57.457 19.24Z" fill="#262626"/>
<path d="M34.1133 38.056C34.0813 38.376 33.8893 38.6 33.5373 38.728C33.2173 38.824 32.8973 38.872 32.5773 38.872C32.0653 38.872 31.6813 38.952 31.4253 39.112C31.4253 38.472 31.6013 37.576 31.9533 36.424C32.3053 35.24 32.7213 33.976 33.2013 32.632C33.7133 31.256 34.2253 29.976 34.7373 28.792C35.2813 27.576 35.7293 26.632 36.0813 25.96C36.8493 24.552 37.4893 23.656 38.0013 23.272C38.5453 22.888 39.1693 22.696 39.8733 22.696C40.5133 22.696 40.9613 22.728 41.2173 22.792C41.5053 22.824 41.7133 22.84 41.8413 22.84C41.1373 23.224 40.3053 24.12 39.3453 25.528C38.4173 26.936 37.5373 28.504 36.7053 30.232C36.9613 29.976 37.2493 29.768 37.5693 29.608C37.9213 29.448 38.3213 29.368 38.7693 29.368C39.3773 29.368 39.9053 29.48 40.3533 29.704C40.8013 29.896 41.4253 29.992 42.2253 29.992C42.8333 29.992 43.2333 29.8 43.4253 29.416C43.9373 28.264 44.4653 27.144 45.0093 26.056C45.5533 24.936 46.0013 24.008 46.3533 23.272C46.5453 22.856 46.8013 22.584 47.1213 22.456C47.4733 22.328 47.8573 22.264 48.2733 22.264H50.8653C50.3213 22.712 49.8573 23.128 49.4733 23.512C49.1213 23.864 48.7693 24.296 48.4173 24.808C48.0973 25.32 47.6813 26.056 47.1693 27.016C46.7533 27.816 46.2573 28.856 45.6813 30.136C45.1053 31.416 44.6733 32.552 44.3853 33.544C44.2573 33.896 44.1453 34.312 44.0493 34.792C43.9853 35.272 43.9533 35.72 43.9533 36.136C43.9533 36.648 44.0333 37.08 44.1933 37.432C44.3533 37.784 44.6253 37.96 45.0093 37.96C45.6173 37.96 46.2413 37.704 46.8813 37.192C47.5213 36.648 48.1453 35.96 48.7533 35.128C49.3613 34.264 49.9213 33.336 50.4333 32.344C50.9773 31.352 51.4413 30.408 51.8253 29.512C52.0813 29.512 52.2413 29.544 52.3053 29.608C52.3693 29.672 52.4013 29.784 52.4013 29.944C52.0173 30.904 51.5373 31.928 50.9613 33.016C50.4173 34.072 49.7773 35.064 49.0413 35.992C48.3373 36.92 47.5533 37.688 46.6893 38.296C45.8573 38.872 44.9613 39.16 44.0013 39.16C43.0413 39.16 42.3533 38.872 41.9373 38.296C41.5533 37.72 41.3613 37 41.3613 36.136C41.3613 35.688 41.4093 35.208 41.5053 34.696C41.6333 34.184 41.7773 33.672 41.9373 33.16C42.0653 32.776 42.2093 32.376 42.3693 31.96C42.5293 31.512 42.7053 31.08 42.8973 30.664C42.7053 30.92 42.4653 31.128 42.1773 31.288C41.8893 31.416 41.5213 31.48 41.0733 31.48C40.6253 31.48 40.2573 31.416 39.9693 31.288C39.6813 31.16 39.3773 31.032 39.0573 30.904C38.7373 30.776 38.3213 30.712 37.8093 30.712C37.4893 30.712 37.1533 30.776 36.8013 30.904C36.4813 31.032 36.2253 31.32 36.0333 31.768C35.5533 32.888 35.1373 33.992 34.7853 35.08C34.4653 36.168 34.2413 37.16 34.1133 38.056Z" fill="#262626"/>
<path d="M15.2077 43.912C12.2957 43.912 9.70366 43.32 7.43166 42.136C5.19166 40.984 3.43166 39.272 2.15166 37C0.903663 34.696 0.279663 31.88 0.279663 28.552C0.279663 26.568 0.535663 24.584 1.04766 22.6C1.55966 20.616 2.24766 18.712 3.11166 16.888C4.00766 15.064 4.99966 13.384 6.08766 11.848C5.60766 9.928 5.36766 7.848 5.36766 5.608C5.36766 3.912 5.55966 2.296 5.94366 0.759997C6.07166 0.311997 6.29566 0.0879974 6.61566 0.0879974C6.87166 0.0879974 6.98366 0.247997 6.95166 0.567997C6.85566 1.208 6.77566 1.896 6.71166 2.632C6.64766 3.336 6.61566 4.184 6.61566 5.176C6.61566 7.032 6.79166 8.792 7.14366 10.456C7.46366 10.04 7.78366 9.656 8.10366 9.304C9.41566 7.864 10.9677 6.52 12.7597 5.272C14.5517 3.992 16.5357 2.968 18.7117 2.2C20.9197 1.432 23.2557 1.048 25.7197 1.048C28.0237 1.048 30.1357 1.48 32.0557 2.344C33.9757 3.176 35.5117 4.392 36.6637 5.992C37.8477 7.56 38.4397 9.464 38.4397 11.704C38.4397 13.112 38.0557 14.552 37.2877 16.024C36.5517 17.496 35.4797 18.856 34.0717 20.104C32.6957 21.32 31.0157 22.312 29.0317 23.08C27.0797 23.848 24.8877 24.232 22.4557 24.232C19.2557 24.232 16.3277 23.528 13.6717 22.12C11.0157 20.712 8.95166 18.568 7.47966 15.688C6.19966 17.96 5.25566 20.264 4.64766 22.6C4.03966 24.936 3.73566 27.16 3.73566 29.272C3.73566 32.344 4.24766 34.84 5.27166 36.76C6.29566 38.68 7.70366 40.088 9.49566 40.984C11.3197 41.912 13.3997 42.376 15.7357 42.376C19.8957 42.376 23.5437 41.32 26.6797 39.208C29.8477 37.128 32.4557 33.896 34.5037 29.512C34.8877 29.512 35.0797 29.656 35.0797 29.944C33.0957 34.68 30.3757 38.184 26.9197 40.456C23.4957 42.76 19.5917 43.912 15.2077 43.912ZM9.54366 12.472C9.12766 13.048 8.72766 13.64 8.34366 14.248C9.46366 16.872 11.1757 18.984 13.4797 20.584C15.7837 22.184 18.6797 22.984 22.1677 22.984C24.3757 22.984 26.3437 22.648 28.0717 21.976C29.8317 21.304 31.3037 20.408 32.4877 19.288C33.7037 18.168 34.6317 16.936 35.2717 15.592C35.9117 14.216 36.2317 12.84 36.2317 11.464C36.2317 9.768 35.7677 8.28 34.8397 7C33.9437 5.72 32.7117 4.728 31.1437 4.024C29.5757 3.288 27.7997 2.92 25.8157 2.92C23.8317 2.92 21.8317 3.336 19.8157 4.168C17.8317 5 15.9437 6.136 14.1517 7.576C12.3917 9.016 10.8557 10.648 9.54366 12.472Z" fill="#262626"/>
</svg>
