<svg width="91" height="90" viewBox="0 0 91 90" fill="none" xmlns="http://www.w3.org/2000/svg">
<g clip-path="url(#clip0_25_48)">
<path d="M40.7336 0.263672C38.923 0.826172 37.464 2.10938 36.673 3.84961C36.0578 5.15039 35.9171 7.69922 36.3742 9.24609C36.9718 11.3203 38.2375 13.3945 40.048 15.2578C41.8937 17.1914 45.5324 19.8633 46.2707 19.8633C47.1847 19.8633 51.2101 17.0859 53.2843 15.0117C54.6203 13.6758 54.8488 13.1309 54.2863 12.5859C53.7765 12.0586 53.3195 12.2695 51.6671 13.8516C50.1027 15.3457 46.8156 17.7539 46.341 17.7539C45.8839 17.7539 42.8253 15.293 41.3664 13.7461C39.0109 11.25 38.0089 9.24609 37.9914 6.94336C37.9738 4.88672 38.9406 3.18164 40.5402 2.39062C42.5441 1.38867 44.1613 2.02148 45.673 4.39453C45.9543 4.85156 46.2003 5.02734 46.6046 5.0625C47.1144 5.11523 47.2023 5.04492 47.7296 4.04297C48.3625 2.84766 48.8546 2.4082 49.9445 2.12695C51.3859 1.74023 53.0382 2.42578 54.2687 3.9375C55.0597 4.88672 55.6222 4.99219 56.0793 4.30664C56.4836 3.67383 56.1847 3.04102 54.9015 1.86328C52.5636 -0.316406 49.2062 -0.474609 47.1671 1.51172L46.5519 2.10938L45.7785 1.40625C44.425 0.158203 42.4738 -0.28125 40.7336 0.263672Z" fill="#9F847A"/>
<path d="M55.1301 7.78711C54.9192 8.01563 54.7434 8.41992 54.7434 8.68359C54.7434 9.28125 55.4641 10.0195 56.0618 10.0195C56.677 10.0195 57.3801 9.28125 57.3801 8.64844C57.3801 7.54102 55.9036 6.97852 55.1301 7.78711Z" fill="#9F847A"/>
<path d="M17.8293 17.7539C16.0363 18.6328 14.4894 19.4414 14.3664 19.5645C14.1379 19.793 1.05976 41.2383 0.637883 42.0645C0.426946 42.4863 0.426946 42.6094 0.655461 42.9609C1.04218 43.541 6.28046 46.6172 6.79023 46.5469C7.24726 46.4941 7.35273 46.3359 11.5012 39.6035L14.384 34.8926L14.8762 39.375C15.1223 41.8359 15.3508 44.1738 15.3508 44.5781C15.3684 45.0527 14.8937 46.6523 13.9621 49.2891C13.1887 51.4863 12.5559 53.4551 12.5559 53.666C12.5559 54.4746 12.6613 54.4922 18.5676 54.4922H24.1574L24.6848 53.7363C25.7746 52.1719 25.5988 52.207 26.2844 53.3672L26.8996 54.4043L32.507 54.457C37.5168 54.4922 38.132 54.4746 38.4309 54.2109C38.6066 54.0352 38.7473 53.8066 38.7473 53.7012C38.7473 53.5781 38.0793 51.627 37.2531 49.3594L35.759 45.2285L36.2863 40.166C36.5852 37.3711 36.8312 35.0859 36.8664 35.0508C36.884 35.0332 38.4309 37.4941 40.2941 40.5352C42.175 43.5762 43.8098 46.1777 43.968 46.3184C44.1086 46.459 44.3898 46.582 44.6008 46.582C44.8117 46.582 46.2531 45.8086 47.8 44.8594C50.1555 43.4355 50.6125 43.084 50.6652 42.6973C50.7004 42.3633 48.9953 39.3926 43.757 30.8145L36.8137 19.3887L33.4562 17.7891L30.0988 16.1719H25.5812H21.0812L17.8293 17.7539ZM30.8195 18.6328C31.7336 19.0723 32.2434 19.4238 32.1906 19.5645C31.3645 21.6562 25.634 34.2422 25.5461 34.1367C25.4758 34.0664 23.9641 30.7266 22.1711 26.7188L18.9016 19.4238L20.343 18.6855L21.7844 17.9473H25.5812L29.3605 17.9297L30.8195 18.6328ZM21.0109 28.8281C23.05 33.416 24.8078 37.2832 24.9133 37.3887C25.1594 37.7227 26.0031 37.6699 26.3019 37.3008C26.5129 37.0723 29.9758 29.373 33.6496 21.0586L34.0187 20.2324L34.757 20.584C35.4777 20.9355 35.8117 21.4453 41.9816 31.5879C45.5324 37.4238 48.4328 42.2227 48.3977 42.2578C48.3625 42.293 47.5715 42.75 46.6574 43.2949C45.3566 44.0684 44.9523 44.2441 44.7941 44.0684C44.6711 43.9629 42.9133 41.1328 40.8566 37.793C38.8 34.4531 37.007 31.5879 36.8488 31.4121C36.5324 31.0605 35.7062 31.0078 35.425 31.3418C35.3195 31.4824 34.9152 34.6992 34.5285 38.5137L33.8078 45.457L35.0383 48.8848C35.7238 50.7832 36.2863 52.3828 36.2863 52.4531C36.2863 52.5059 34.4055 52.541 32.1203 52.5234L27.9543 52.4707L27.1281 51.082C26.6535 50.3086 26.1437 49.6055 25.9855 49.5176C25.4758 49.2188 24.9133 49.6934 24.0519 51.1348L23.1906 52.5586H19.0246H14.8586L15.8781 49.623C16.4582 47.9883 17.0031 46.4414 17.1086 46.1777C17.3898 45.4395 17.3723 44.9648 16.6691 38.1445C16.2473 34.0137 15.9484 31.7637 15.7727 31.5C15.5793 31.1836 15.3859 31.1133 14.9641 31.1484C14.4367 31.2012 14.2082 31.5176 10.3937 37.7051C8.19648 41.2734 6.3332 44.209 6.26288 44.209C6.19257 44.209 5.40156 43.7695 4.50507 43.2422C3.38007 42.5742 2.88788 42.1875 2.94062 42.0117C2.99335 41.8711 5.85859 37.0723 9.33906 31.377C14.9465 22.166 15.7375 20.9707 16.3527 20.6191C16.7219 20.4082 17.091 20.2852 17.1613 20.3555C17.2316 20.4258 18.9543 24.2402 21.0109 28.8281Z" fill="#9F847A"/>
<path d="M24.6671 39.8848C24.0519 40.5 24.0167 41.1328 24.5617 41.7305C25.1242 42.3633 26.0382 42.416 26.6183 41.8359C27.1281 41.3262 27.0929 40.3594 26.5304 39.8144C25.9503 39.2344 25.2999 39.2519 24.6671 39.8848Z" fill="#9F847A"/>
<path d="M24.9308 45.3867C24.1047 45.7734 23.9465 46.8984 24.5968 47.5488C25.5285 48.498 26.9699 47.9004 26.9699 46.5645C26.9699 45.4922 25.9328 44.8945 24.9308 45.3867Z" fill="#9F847A"/>
<path d="M57.2394 17.0859C56.7472 17.3496 55.9562 19.125 55.4464 21.0762C54.4269 25.0664 54.6203 28.7227 56.0793 32.959C56.7824 34.9629 57.1164 35.4375 57.8019 35.2617C58.6281 35.0508 58.6984 34.541 58.0832 32.8711C57.0636 30.0938 56.7824 28.6523 56.8 25.9277C56.8 23.8711 56.8878 23.1855 57.257 21.7969C57.5031 20.8828 57.8195 19.8281 57.9777 19.459L58.2589 18.8086H60.5441H62.8293V22.1484V25.5059L64.5695 27.3867C67.8214 30.9375 68.0148 31.1133 68.4543 31.1133C68.8937 31.1133 68.9464 31.0606 72.339 27.3867L74.0793 25.5059V22.1484V18.8086H76.3644H78.632L78.9132 19.3184C79.0539 19.5996 79.3703 20.5312 79.6339 21.3926C80.1964 23.2383 80.4074 26.9473 80.0734 28.9336C79.9679 29.6016 79.2296 32.0977 78.421 34.4883L76.9796 38.8477H68.1027C60.3507 38.8477 59.173 38.8828 58.8214 39.1289C58.4523 39.3926 58.4347 39.4805 58.4347 42.9082V46.4414L57.3097 48.2168C52.2121 56.3731 49.2062 64.6699 47.9757 74.0039C47.6242 76.6406 47.3429 82.5469 47.5187 83.3555C47.9582 85.2715 49.9269 86.7832 53.5128 87.9609C62.091 90.7559 76.2589 90.6504 84.257 87.7324C87.0871 86.6953 89.0031 85.166 89.4601 83.6016C89.9347 81.9844 89.4074 74.9883 88.4757 70.1367C87.3156 64.125 85.0304 57.6738 82.2355 52.4356C81.216 50.5371 80.8293 50.2031 80.0734 50.625C79.4582 50.9414 79.6339 51.5742 81.0226 54.3164C85.171 62.5254 87.1925 70.3477 87.7023 80.3496C87.8429 83.0918 87.6144 83.8125 86.3136 84.6738C85.4523 85.2363 82.6046 86.3613 82.2882 86.2559C82.1828 86.2207 81.2863 81.9668 80.2843 76.7988C78.9308 69.8203 78.3859 67.3594 78.175 67.2012C77.7179 66.8496 77.1027 66.9375 76.8214 67.3594C76.5929 67.7285 76.7335 68.625 78.4035 77.168C79.4054 82.3359 80.2316 86.6602 80.2316 86.7656C80.2316 87.1348 73.2003 88.0488 70.2648 88.0664H69.5089V77.8184C69.5089 68.0977 69.4914 67.5352 69.1925 67.2715C68.7707 66.8848 68.2257 66.9023 67.8742 67.2891C67.6105 67.5879 67.5753 68.5723 67.5753 77.8359V88.0664H66.8898C64.13 88.0664 56.8527 87.1348 56.8527 86.7656C56.8527 86.6602 57.6789 82.3359 58.6808 77.168C60.3507 68.625 60.4914 67.7285 60.2628 67.3594C59.9816 66.9375 59.3664 66.8496 58.9093 67.1836C58.6984 67.3594 58.1535 69.8555 56.8 76.8164L54.9718 86.2207L54.5148 86.1855C53.882 86.1504 51.8078 85.3066 50.841 84.6914C50.2785 84.3398 49.8918 83.918 49.6457 83.3906C49.2589 82.6172 49.2589 82.5293 49.4523 79.2246C49.8566 72.2988 51.0695 66.4102 53.3546 60.3633C54.4621 57.4629 57.0988 52.1191 58.6632 49.6582L59.7707 47.9004L68.964 47.8125C77.8058 47.7246 78.1574 47.707 78.4035 47.3906C78.5968 47.1094 78.6496 46.2832 78.6496 43.5059V39.9551L80.1261 35.4902C82.1125 29.5137 82.0773 29.6367 82.0597 26.0156C82.0421 23.3086 81.9894 22.7461 81.6027 21.2695C80.9523 18.8613 80.1964 17.2793 79.5812 17.0332C78.8429 16.752 72.8136 16.8926 72.4445 17.209C72.1808 17.4199 72.1457 17.9297 72.1457 21.1641L72.1281 24.873L70.3 26.8066L68.4543 28.7402L66.6085 26.8066L64.7804 24.873L64.7628 21.1641C64.7628 17.9297 64.7277 17.4199 64.464 17.209C64.0597 16.8574 57.8371 16.7695 57.2394 17.0859ZM76.716 43.3301V45.8789H68.5421H60.3683V43.3301V40.7813H68.5421H76.716V43.3301Z" fill="#9F847A"/>
<path d="M85.4875 39.1289C85.3644 39.2695 85.2414 39.832 85.1887 40.3594L85.1183 41.3086H84.257C83.6242 41.3086 83.3078 41.3965 83.0441 41.6602C82.6223 42.082 82.6047 42.3281 82.9738 42.8555C83.1848 43.1719 83.4133 43.2422 84.2043 43.2422H85.1535V43.9805C85.1535 45.0176 85.4875 45.5977 86.0851 45.668C86.8586 45.7559 87.0871 45.4395 87.0871 44.2793V43.2422H88.0187C89.1262 43.2422 89.6008 42.9609 89.6008 42.2754C89.6008 41.5898 89.1262 41.3086 88.0187 41.3086H87.0871V40.2539C87.0871 39.4102 87.0168 39.1816 86.7531 39.0234C86.2609 38.7598 85.7512 38.8125 85.4875 39.1289Z" fill="#9F847A"/>
<path d="M24.8782 56.127C24.7024 56.3555 21.5208 86.168 21.5208 87.6973C21.5208 88.3125 21.5911 88.4531 21.9602 88.6289C22.6106 88.9277 23.2434 88.5762 23.3489 87.8555C23.4016 87.5391 23.8938 82.916 24.4211 77.6074C24.9661 72.2812 25.4583 67.623 25.5286 67.2539C25.6165 66.7441 25.9856 69.6445 26.7766 77.3613C27.6379 85.6934 27.9543 88.2246 28.1653 88.4531C28.5168 88.875 29.1321 88.8574 29.5012 88.4355C29.8 88.1016 29.7473 87.3984 28.2004 72.2988C26.9524 60.2754 26.4954 56.4434 26.302 56.1973C25.9856 55.8457 25.1594 55.793 24.8782 56.127Z" fill="#9F847A"/>
<path d="M14.6477 57.7793C14.4368 58.0078 14.4016 60.627 14.4016 73.1602C14.4016 87.9082 14.4016 88.2773 14.7356 88.5234C15.1926 88.8398 15.6321 88.8398 15.9661 88.4883C16.2122 88.2422 16.2473 86.6074 16.2473 73.0547C16.2473 61.5059 16.1946 57.8496 16.0364 57.6914C15.7375 57.3926 14.929 57.4277 14.6477 57.7793Z" fill="#9F847A"/>
<path d="M35.1614 57.7617C34.9153 58.0078 34.8801 59.625 34.8801 73.0019C34.8801 86.2734 34.9153 88.0312 35.1614 88.3828C35.4778 88.8574 36.1282 88.8926 36.5149 88.4531C36.7961 88.1543 36.8137 86.8359 36.8137 73.1426C36.8137 63.1582 36.761 58.043 36.6379 57.8144C36.4094 57.4102 35.5481 57.3574 35.1614 57.7617Z" fill="#9F847A"/>
<path d="M4.29408 69.4336C4.03041 69.6973 3.94252 70.0137 3.94252 70.6641V71.543H3.20424C2.16713 71.543 1.58705 71.877 1.51674 72.4746C1.42885 73.2481 1.74526 73.4766 2.90541 73.4766H3.94252V74.4434C3.94252 75.1816 4.03041 75.4981 4.29408 75.7617C5.0851 76.5527 5.87612 75.9023 5.87612 74.4434V73.4766H6.91322C8.07338 73.4766 8.38979 73.2481 8.3019 72.4746C8.23158 71.877 7.65151 71.543 6.63197 71.543H5.87612V70.6641C5.87612 69.75 5.47182 69.082 4.90932 69.082C4.76869 69.082 4.48744 69.2402 4.29408 69.4336Z" fill="#9F847A"/>
</g>
<defs>
<clipPath id="clip0_25_48">
<rect width="90" height="90" fill="white" transform="translate(0.0754395)"/>
</clipPath>
</defs>
</svg>
