<svg width="30" height="32" viewBox="0 0 30 32" fill="none" xmlns="http://www.w3.org/2000/svg">
<path d="M10.08 31.02C7.81333 31.02 5.93333 30.66 4.44 29.94C2.94667 29.2467 1.82667 28.3267 1.08 27.18C0.36 26.0067 0 24.7667 0 23.46C0 21.9933 0.44 20.54 1.32 19.1C2.2 17.6333 3.50667 16.38 5.24 15.34C7 14.2733 9.14667 13.6067 11.68 13.34C11.3067 12.8333 11.0267 12.26 10.84 11.62C10.6533 10.9533 10.56 10.3267 10.56 9.74001C10.5867 8.32668 10.9867 7.08668 11.76 6.02001C12.5333 4.92668 13.52 4.00668 14.72 3.26001C15.9467 2.51334 17.2533 1.95334 18.64 1.58001C20.0267 1.18001 21.3333 0.980011 22.56 0.980011C23.3067 0.980011 24.0667 1.08668 24.84 1.30001C25.6133 1.48668 26.2667 1.83334 26.8 2.34001C27.3333 2.84668 27.6 3.56668 27.6 4.50001C27.6 5.27334 27.36 5.96668 26.88 6.58001C26.4 7.19334 25.8133 7.50001 25.12 7.50001C24.6133 7.50001 24.1733 7.31334 23.8 6.94001C23.4267 6.56668 23.24 6.14001 23.24 5.66001C23.24 5.10001 23.4133 4.64668 23.76 4.30001C24.1333 3.92668 24.5867 3.74001 25.12 3.74001C25.36 3.74001 25.6267 3.82001 25.92 3.98001C26.24 4.14001 26.44 4.30001 26.52 4.46001C26.5467 4.35335 26.56 4.20668 26.56 4.02001C26.56 3.30001 26.2667 2.79334 25.68 2.50001C25.0933 2.20668 24.4667 2.06001 23.8 2.06001C22.7333 2.06001 21.4933 2.32668 20.08 2.86001C18.6667 3.36668 17.2933 4.20668 15.96 5.38001C15.48 5.80668 14.9867 6.36668 14.48 7.06001C13.9733 7.75335 13.5467 8.50001 13.2 9.30001C12.8533 10.0733 12.68 10.86 12.68 11.66C12.68 12.2733 12.7867 12.8067 13 13.26C13.4 13.26 13.8533 13.2467 14.36 13.22C14.8933 13.1667 15.44 13.14 16 13.14C16.6933 13.14 17.24 13.2867 17.64 13.58C18.04 13.8733 18.24 14.2067 18.24 14.58C18.24 14.8467 18.08 15.1 17.76 15.34C17.44 15.58 16.9333 15.7 16.24 15.7C15.36 15.7 14.56 15.5133 13.84 15.14C13.1467 14.74 12.6 14.34 12.2 13.94C10.44 14.18 8.94667 14.8333 7.72 15.9C6.49333 16.9667 5.56 18.2333 4.92 19.7C4.28 21.14 3.96 22.58 3.96 24.02C3.96 25.1667 4.17333 26.2333 4.6 27.22C5.05333 28.2067 5.73333 28.9933 6.64 29.58C7.54667 30.1933 8.69333 30.5 10.08 30.5C11.52 30.5 12.8267 30.2333 14 29.7C15.2 29.1933 16.2267 28.5267 17.08 27.7C17.9333 26.8733 18.5867 26.0067 19.04 25.1C19.52 24.1667 19.76 23.3 19.76 22.5C19.76 21.8067 19.5067 21.2333 19 20.78C18.52 20.3 17.88 19.9533 17.08 19.74C16.28 19.5 15.4267 19.38 14.52 19.38C13.5867 19.38 12.6533 19.5133 11.72 19.78C10.8133 20.02 10.04 20.4067 9.4 20.94C8.76 21.4467 8.37333 22.1 8.24 22.9C8.24 22.9533 8.22667 23.02 8.2 23.1C8.2 23.1533 8.2 23.2067 8.2 23.26C8.2 23.8467 8.41333 24.4333 8.84 25.02C9.29333 25.58 9.98667 26.1 10.92 26.58C11.16 26.6867 11.28 26.8867 11.28 27.18C11.28 27.4733 11.1467 27.5533 10.88 27.42C9.41333 26.6467 8.33333 25.8067 7.64 24.9C6.97333 23.9667 6.64 23.0867 6.64 22.26C6.64 21.06 7.28 20.0333 8.56 19.18C9.86667 18.3 11.72 17.86 14.12 17.86H21.2C21.6267 17.86 22.2533 17.7667 23.08 17.58C23.9333 17.3933 24.8 17.1267 25.68 16.78C26.56 16.4067 27.3067 15.98 27.92 15.5C28.56 14.9933 28.88 14.42 28.88 13.78C28.88 13.4333 28.76 13.06 28.52 12.66C28.4667 12.58 28.44 12.4867 28.44 12.38C28.44 12.22 28.5067 12.14 28.64 12.14C28.7467 12.14 28.84 12.2067 28.92 12.34C29.32 12.9267 29.52 13.5267 29.52 14.14C29.52 14.86 29.2533 15.5267 28.72 16.14C28.2133 16.7533 27.52 17.3 26.64 17.78C25.76 18.2333 24.7733 18.58 23.68 18.82C22.6133 19.06 21.52 19.1667 20.4 19.14C20.9067 19.5667 21.28 20.0467 21.52 20.58C21.76 21.1133 21.88 21.6733 21.88 22.26C21.88 23.2467 21.5867 24.26 21 25.3C20.4133 26.3133 19.5867 27.26 18.52 28.14C17.4533 28.9933 16.2 29.6867 14.76 30.22C13.3467 30.7533 11.7867 31.02 10.08 31.02ZM16.24 15.02C17.12 15.02 17.56 14.8467 17.56 14.5C17.56 14.3667 17.44 14.2333 17.2 14.1C16.9867 13.94 16.6933 13.8467 16.32 13.82C16.16 13.7933 15.8933 13.78 15.52 13.78C15.1467 13.78 14.7467 13.78 14.32 13.78C13.92 13.78 13.5867 13.78 13.32 13.78C13.9867 14.6067 14.96 15.02 16.24 15.02Z" fill="#9F847A"/>
</svg>
