<svg width="79" height="72" viewBox="0 0 79 72" fill="none" xmlns="http://www.w3.org/2000/svg">
<path d="M34.2173 4.42188C30.1705 8.125 29.3267 8.82812 28.5455 9.125C27.1548 9.6875 25.2486 10.6562 24.0767 11.4062C23.4986 11.7812 22.9986 12.0938 22.9673 12.0938C22.9361 12.0938 22.8736 11.5781 22.8267 10.9375C22.6236 8.5 21.5298 6.10938 19.7798 4.25C16.1861 0.421875 11.0767 -0.5 6.3111 1.82812C5.21735 2.35938 4.71735 2.73438 3.4986 3.95312C1.88922 5.57812 1.17047 6.70312 0.514221 8.73438C0.186096 9.75 0.154846 10.1406 0.0923463 14.6719C0.0454713 18.5 0.0923463 19.8594 0.279846 21.125C0.701721 23.8906 1.63922 26.0312 3.29547 27.9844C3.76422 28.5312 4.42047 29.375 4.76422 29.875L5.40485 30.7656L4.17047 31.8906C3.4986 32.5156 2.34235 33.5625 1.59235 34.2344C0.201721 35.5 -0.0326537 35.8125 0.139221 36.2656C0.201721 36.4219 1.8111 37.9688 3.73297 39.7188L7.21735 42.8906L7.32672 44.2344C7.48297 46.0156 7.32672 52.5156 7.09235 53.8906C6.9986 54.4844 6.63922 56.5 6.3111 58.3594C5.96735 60.2188 5.60797 62.6562 5.51422 63.7656C5.34235 65.5781 5.34235 65.9219 5.57672 66.875C6.04547 68.75 7.38922 70.2344 9.27985 70.9375C10.3423 71.3438 12.7017 71.3125 13.7798 70.8906C15.6236 70.1406 16.8892 68.7188 17.358 66.875C17.5923 65.9219 17.5923 65.5469 17.4361 63.8281C17.3423 62.75 17.0142 60.5156 16.7173 58.8906C16.4048 57.25 16.0611 55.2188 15.9205 54.3594C15.2642 50.1875 15.6236 36.6406 16.483 33.5156C16.8736 32.0625 17.7955 30.2656 18.733 29.125C20.8736 26.5156 21.8267 24.8125 22.4361 22.5938C22.7017 21.6094 22.7798 20.7344 22.858 17.7188L22.9517 14.0469L24.2798 13.1562C30.1861 9.20312 37.7173 7.76562 44.9048 9.21875C47.8892 9.82812 51.7017 11.4219 54.3111 13.1719L55.608 14.0469L55.7017 19.2031C55.7955 24.9531 55.8267 25.2188 56.9361 27.0938C57.5142 28.0781 58.3892 29 59.9673 30.2812C60.8736 31.0156 61.858 32.4688 62.1705 33.5625C62.4205 34.4219 62.608 36.7031 62.8736 42.1562C62.9673 44.1875 63.108 45.6719 63.2017 45.7969C63.4517 46.0938 64.0298 46.0469 64.3267 45.7188C64.5611 45.4688 64.5767 45.1094 64.4361 42.0781C63.9517 31.7969 63.9986 31.9062 59.5298 27.7812C58.733 27.0469 58.3736 26.5469 57.9205 25.5938L57.3267 24.3594L57.2798 13.8594C57.233 2.29688 57.2017 2.65625 58.1705 2.25C58.7642 2.01562 59.3423 2.14062 59.8423 2.64062L60.2173 3.01562V11.125C60.2173 16.75 60.2642 19.3906 60.3892 19.7656C60.6236 20.4688 61.4048 21.2656 62.0611 21.4844C63.2955 21.8906 64.8423 21.25 65.3111 20.125C65.483 19.7031 65.5298 18.0781 65.5298 11.5156C65.5298 2.82812 65.5298 2.96875 66.3423 2.35938C66.7017 2.09375 66.8736 2.0625 67.3423 2.1875C67.6861 2.26562 68.0611 2.51562 68.2486 2.76562C68.5767 3.20312 68.5767 3.39062 68.6548 11.625C68.733 19.8125 68.7486 20.0469 69.0611 20.4688C69.7486 21.4062 70.7017 21.7812 71.858 21.5625C72.6705 21.4062 73.5767 20.5312 73.7955 19.6719C73.9048 19.2188 73.9673 16.3594 73.9673 11V3.01562L74.3423 2.64062C74.8423 2.14062 75.4205 2.01562 76.0142 2.25C76.9673 2.64062 76.9361 2.35938 76.9361 13.3281C76.9361 20.0469 76.8736 23.5938 76.7642 24.1562C76.4673 25.5312 75.5923 27.0156 74.5298 27.9219C71.0455 30.9219 70.3736 32.1875 70.0611 36.4688C69.8111 40.0625 69.5923 45.2344 69.5923 48.0312C69.5923 52 69.8267 53.9688 71.1861 61.3906C71.5611 63.4688 71.6392 66.1406 71.3267 67C71.0298 67.8594 70.0455 68.875 69.0767 69.2969C68.4673 69.5781 67.9673 69.6562 67.0923 69.6719C66.0767 69.6719 65.7798 69.6094 64.8892 69.1719C63.7017 68.5781 63.0923 67.8594 62.7642 66.5938C62.3892 65.0781 62.4205 64.7656 63.8267 56.7812C64.1705 54.8281 64.5923 51.1562 64.5923 50.1094C64.5923 49.5781 64.5142 49.3906 64.2173 49.2031C64.0142 49.0781 63.733 49 63.5923 49.0625C63.4361 49.125 62.8736 49.8438 62.3423 50.6719C57.9205 57.4688 51.4986 61.6719 43.5611 62.9688C41.2798 63.3438 36.983 63.3438 34.9048 62.9688C29.108 61.9375 24.5142 59.6875 20.5923 55.9531C19.1548 54.5938 18.6548 54.3438 18.2173 54.7812C17.8111 55.1875 18.0298 55.6406 19.2486 56.7969C21.8892 59.3438 24.9517 61.3594 28.2486 62.7344C29.4205 63.2188 29.733 63.4844 34.233 67.5938C36.8736 70.0156 39.0923 71.9375 39.2642 71.9375C39.4205 71.9375 41.6548 70.0156 44.2955 67.5938L49.0455 63.2656L50.608 62.5938C54.7173 60.8594 58.8892 57.7344 61.5611 54.3906C62.0611 53.7656 62.5298 53.1875 62.608 53.1094C62.858 52.8438 62.5923 54.8438 61.858 58.875C61.0455 63.4062 60.9048 64.7812 61.1392 66.2656C61.3736 67.7656 61.7798 68.6719 62.6392 69.5312C64.983 71.875 69.1392 71.8594 71.5142 69.4844C72.3736 68.625 72.7955 67.8125 73.0611 66.5625C73.2955 65.3594 73.0455 62.75 72.2486 58.3438C71.1861 52.4375 71.233 52.9062 71.2486 47.0156C71.2798 38.9375 71.7017 33.6406 72.3892 32.5781C72.5455 32.3438 72.5298 32.3438 75.733 35.25L76.5455 35.9844L75.0298 37.4062C74.1861 38.1875 73.4986 38.9375 73.4986 39.0625C73.4986 39.3594 74.0611 39.9062 74.358 39.9062C74.5923 39.9062 78.1392 36.7812 78.3892 36.3594C78.6705 35.8906 78.2642 35.3906 75.9205 33.2656C74.5923 32.0625 73.4986 31.0312 73.4986 30.9688C73.4986 30.9062 73.8267 30.5938 74.233 30.2656C76.4986 28.4219 77.4205 27.25 78.0611 25.4062L78.4205 24.3594V13.4688V2.59375L77.9517 1.92188C76.5767 -0.015625 73.7798 0.171875 72.7173 2.26562C72.4205 2.82812 72.4048 3.23438 72.4048 11.0469C72.4048 19.0938 72.4048 19.25 72.0767 19.6562C71.7017 20.125 71.0923 20.1875 70.5611 19.8125L70.2173 19.5781V11.5625C70.2173 2.48438 70.2017 2.39062 69.1392 1.42188C68.5298 0.875 67.6861 0.53125 66.9361 0.53125C65.858 0.546875 64.4517 1.70312 64.1392 2.82812C64.0298 3.20312 63.9673 6.32812 63.9673 11.4219C63.9673 19.2344 63.9517 19.4531 63.6548 19.75C63.2017 20.2031 62.4986 20.1562 62.108 19.6562C61.7798 19.25 61.7798 19.0938 61.7798 11.0469C61.7798 3.23438 61.7642 2.82812 61.4673 2.26562C60.4048 0.171875 57.608 -0.015625 56.233 1.92188L55.7642 2.59375L55.7173 7.34375C55.6861 9.95312 55.6392 12.0938 55.608 12.0938C55.5767 12.0938 55.0611 11.7812 54.483 11.4062C53.2955 10.6406 51.3892 9.67188 49.983 9.125C49.1861 8.8125 48.4986 8.25 45.5298 5.53125C43.608 3.76562 41.4673 1.8125 40.7955 1.1875C40.108 0.578125 39.4205 0.0625 39.2642 0.0625C39.108 0.0625 36.858 2 34.2173 4.42188ZM42.4517 4.82812C44.1392 6.35938 45.4986 7.65625 45.4673 7.67188C45.4361 7.70312 44.7642 7.60938 43.9517 7.45312C41.9517 7.07812 36.7017 7.07812 34.5923 7.45312C33.7798 7.59375 33.0923 7.6875 33.0767 7.65625C32.9986 7.59375 39.1861 1.95312 39.2955 1.98438C39.3423 2 40.7642 3.28125 42.4517 4.82812ZM13.4673 2.34375C15.358 2.71875 16.7955 3.51562 18.2798 4.98438C19.6548 6.35938 20.3111 7.375 20.8736 9.04688C21.2173 10.1094 21.233 10.2812 21.2173 15.6094C21.2173 20.75 21.2017 21.1562 20.8736 22.3125C20.4205 23.9375 19.608 25.5469 18.6548 26.7031C15.6236 30.375 14.733 32.4375 14.4361 36.625C14.1705 40.2344 13.9673 45.3438 13.9673 48.0469C13.9673 51.8281 14.2017 53.9062 15.3111 59.9844C16.2017 64.9219 16.1861 66.4531 15.2017 67.9375C14.483 69 13.0611 69.6719 11.4673 69.6719C9.5611 69.6719 8.0611 68.7969 7.34235 67.25C7.0611 66.6562 7.01422 66.2812 7.02985 64.8281C7.04547 63.8594 7.20172 62.3594 7.3736 61.3906C8.1861 57.0156 8.65485 54.0625 8.79547 52.4062C9.1861 48.1406 8.73297 36.1562 8.07672 33.5156C7.52985 31.3125 6.38922 29.2188 4.4361 26.875C3.48297 25.7188 2.52985 23.9375 2.07672 22.4062C1.7486 21.3125 1.71735 20.875 1.67047 16.1562C1.59235 10.3594 1.6861 9.54688 2.67047 7.5625C3.38922 6.09375 5.29547 4.125 6.70172 3.40625C9.01422 2.20312 11.1392 1.85938 13.4673 2.34375ZM6.38922 33.2188C6.71735 34.3438 6.92047 35.8281 7.0611 38.4219C7.13922 39.625 7.1861 40.625 7.17047 40.6562C7.10797 40.75 2.17047 36.1406 2.17047 36C2.17047 35.8281 5.84235 32.4219 6.02985 32.4062C6.09235 32.4062 6.2486 32.7812 6.38922 33.2188ZM34.6236 64.5469C36.6705 64.9219 41.9048 64.9219 43.9517 64.5469C44.7642 64.3906 45.4361 64.2969 45.4673 64.3281C45.4986 64.3594 44.108 65.6562 42.3892 67.2344L39.2642 70.0781L38.5298 69.4062C38.1236 69.0312 36.7173 67.75 35.4205 66.5625C34.108 65.3594 33.0298 64.3594 33.0298 64.3281C33.0298 64.25 33.0923 64.2656 34.6236 64.5469Z" fill="#9F847A"/>
<path d="M37.7954 18.1406C35.1235 18.4687 32.7329 19.1719 30.6548 20.25C24.8735 23.2656 21.4673 29.1094 21.4673 36C21.4673 45.8906 28.4204 53.2031 38.4985 53.9062C43.311 54.2344 48.3735 52.2656 51.9673 48.6406C54.7173 45.8906 56.4517 42.4687 57.0142 38.7031C57.8735 32.9844 56.0454 27.4375 51.9517 23.3281C49.8735 21.25 47.6548 19.875 44.9048 18.9687C42.7173 18.2187 39.811 17.8906 37.7954 18.1406ZM41.4673 19.8281C48.4048 20.8906 53.2017 25.0469 55.0298 31.5781C55.4204 32.9844 55.4517 33.3281 55.4517 36C55.4517 38.6562 55.4204 39.0156 55.0298 40.375C53.1392 47.1875 47.9673 51.4687 40.6548 52.2812C33.3735 53.0937 26.1235 48.3281 23.7642 41.2031C22.5767 37.5937 22.5767 34.4062 23.7642 30.7969C25.3735 25.9531 29.2173 22.0937 34.0767 20.4844C36.7485 19.5937 38.7954 19.4062 41.4673 19.8281Z" fill="#9F847A"/>
<path d="M33.3892 27.0781C29.8267 28.3594 28.2486 32.1875 29.8267 35.6562C30.1705 36.3906 30.9674 37.2656 34.5611 40.875C37.9674 44.3125 38.9674 45.2188 39.2799 45.2188C39.5924 45.2188 40.5924 44.3125 43.9986 40.875C47.5767 37.2969 48.3892 36.3906 48.7174 35.6719C50.1861 32.4844 48.8267 28.7187 45.7174 27.2812C43.9674 26.4844 41.4205 26.6406 39.8736 27.6562L39.2799 28.0312L38.6705 27.625C37.3424 26.75 34.983 26.5156 33.3892 27.0781ZM37.2174 28.6562C37.5924 28.8281 38.2017 29.1875 38.5767 29.4531L39.2799 29.9531L39.983 29.4531C41.1236 28.6406 41.9049 28.3437 43.0455 28.3437C44.3267 28.3437 45.3111 28.6719 46.1392 29.375C47.7642 30.7813 48.233 33.125 47.2642 35.1094C47.0611 35.5312 45.5299 37.1719 43.108 39.5937L39.2799 43.4219L35.3111 39.4375C31.6705 35.7812 31.3267 35.3906 31.0767 34.5937C30.6549 33.3437 30.7174 31.9531 31.233 30.9063C31.7174 29.9219 32.7799 28.9219 33.7017 28.5937C34.6705 28.25 36.4049 28.2812 37.2174 28.6562Z" fill="#9F847A"/>
</svg>
