<svg width="26" height="32" viewBox="0 0 26 32" fill="none" xmlns="http://www.w3.org/2000/svg">
<path d="M21.5347 0.0234566C21.4955 0.0337909 21.3983 0.0523941 21.3177 0.0668621C20.6749 0.174339 19.9867 0.486434 19.1888 1.03208C17.8227 1.9663 16.7872 2.91912 15.8695 4.08483C15.2081 4.92397 14.741 5.66804 14.2801 6.60639C13.8646 7.44967 13.5939 8.16273 13.3479 9.05561C13.1743 9.68807 13.0193 10.5231 12.9862 11.0253C12.9779 11.1369 12.9655 11.232 12.9552 11.2382C12.9469 11.2423 12.8663 11.17 12.7775 11.077C11.5353 9.76041 11.1591 9.39458 10.3944 8.76419C8.52594 7.22438 6.71951 6.18682 5.30991 5.84372C4.83454 5.72798 4.47077 5.68664 3.96232 5.68664C2.99504 5.68871 2.27164 5.93466 1.63091 6.48238C1.1514 6.89162 0.808302 7.48687 0.642954 8.18754C0.603684 8.35702 0.589216 8.43969 0.535478 8.82826C0.510675 8.99774 0.516876 9.65087 0.545812 9.86169C0.618152 10.4363 0.71116 10.8476 0.870308 11.3188C1.1018 12.003 1.38082 12.4887 2.17863 13.5924C2.35018 13.8301 2.72841 14.3571 3.0157 14.7601C4.4439 16.7629 5.35332 17.8811 6.17179 18.6355C6.31854 18.7719 6.46115 18.9166 6.49009 18.9559C6.66784 19.2101 7.15148 19.8363 7.40364 20.1381C7.98649 20.8367 8.34406 21.2149 9.99341 22.8932C11.7668 24.6996 11.9714 24.9291 12.5026 25.7248C12.7506 26.0968 12.9304 26.3118 13.1206 26.4668C13.2652 26.5846 13.5215 26.7355 13.5567 26.7231C13.6042 26.7086 11.8846 24.0982 10.8801 22.6659C10.5721 22.2256 10.1815 21.6386 9.79499 21.033C9.62137 20.7602 9.37128 20.3696 9.24107 20.165C8.49494 18.9993 8.18904 18.5652 6.77738 16.6823C5.75842 15.3223 5.58687 15.0888 5.18177 14.5121C4.09874 12.9702 3.39601 11.6702 3.10251 10.6678C2.9537 10.151 2.90203 9.79142 2.91856 9.34497C2.93096 8.96467 2.97023 8.77039 3.07358 8.55957C3.16038 8.38389 3.26579 8.29708 3.45594 8.23921C3.7205 8.1586 4.18968 8.18133 4.61338 8.29088C5.62201 8.54924 7.02747 9.40078 8.63755 10.7277C9.31135 11.2816 9.84873 11.7756 10.5804 12.5073C11.0723 12.9971 11.3224 13.2679 11.7068 13.7246C12.3414 14.477 12.4654 14.6196 12.7072 14.8821C13.1702 15.3823 13.629 15.7233 14.0382 15.868C14.1809 15.9176 14.2305 15.9072 14.3379 15.7977C14.5281 15.6096 14.6542 15.3885 14.7492 15.0764C14.7968 14.911 14.803 14.8635 14.803 14.5638C14.803 14.2062 14.7637 13.9747 14.6583 13.675C14.5901 13.4849 14.4351 13.1749 14.3131 12.9847L14.216 12.8338L14.2904 12.561C14.4123 12.1146 14.4392 12.0092 14.4826 11.8045C14.5384 11.5482 14.6418 11.0171 14.6852 10.7814C14.712 10.6223 14.7678 10.3743 14.8629 9.9857C14.9167 9.75628 15.1316 9.02875 15.1895 8.8696C15.2267 8.77246 15.2618 8.67118 15.2722 8.64224C15.4106 8.21441 15.7393 7.48894 15.9997 7.03216C17.1199 5.06452 18.5399 3.53505 20.367 2.32387C21.1462 1.80715 21.7373 1.6294 22.2416 1.75755C22.5475 1.83609 22.7686 1.9849 22.9836 2.25153C23.2606 2.59463 23.4734 3.12994 23.5809 3.7438C23.6863 4.34112 23.7297 5.51923 23.6843 6.52372C23.6347 7.62328 23.5478 8.5017 23.3928 9.49999C23.3825 9.56819 23.3639 9.68807 23.3536 9.76868C23.3308 9.92369 23.3184 10.0064 23.2502 10.4404C23.0787 11.54 22.8761 12.4928 22.6674 13.179C22.595 13.4208 22.2974 14.3199 22.2519 14.4398C22.2333 14.4852 22.1734 14.6485 22.1176 14.8015C21.9522 15.25 21.6277 16.0416 21.4376 16.455C21.4087 16.517 21.328 16.6988 21.2557 16.858C21.0635 17.2838 20.8795 17.6723 20.4744 18.5011C20.1582 19.1501 19.687 20.1112 19.5629 20.3613C19.503 20.4812 19.2963 20.8243 19.102 21.126C18.9098 21.4278 18.5192 22.0355 18.2381 22.4798C16.6714 24.9435 15.4871 26.7252 14.7761 27.6904C14.7244 27.7607 14.6273 27.895 14.5591 27.9901C14.3483 28.2836 13.7489 29.0772 13.4988 29.3935C13.2322 29.7283 13.1268 29.8502 12.6679 30.3546C12.114 30.9622 11.8618 31.2681 11.6614 31.5843C11.556 31.7476 11.4402 31.975 11.4526 31.9874C11.4609 31.9956 11.8825 31.5533 12.8271 30.5468C13.7344 29.5795 15.0303 28.0976 16.0059 26.9132C16.2642 26.6011 16.597 26.196 16.7479 26.0142C18.7837 23.5443 19.8854 21.9962 21.0263 20.0037C21.1772 19.7392 21.3466 19.4395 21.4004 19.3382C21.4562 19.2349 21.5451 19.0695 21.6009 18.9683C21.7331 18.7244 22.2664 17.6558 22.3863 17.3954C22.595 16.9427 22.6343 16.858 22.7666 16.5542C22.841 16.3805 22.9195 16.2007 22.9402 16.1553C23.1035 15.7936 23.554 14.6279 23.8041 13.9231C24.2361 12.7057 24.6722 11.1121 24.8417 10.1407C24.852 10.0828 24.8727 9.9671 24.8913 9.88236C24.974 9.46899 25.1042 8.58851 25.16 8.05319C25.1786 7.88164 25.2013 7.65842 25.2137 7.55714C25.2241 7.4538 25.2427 7.19958 25.2551 6.98876C25.2675 6.77794 25.2861 6.48445 25.2964 6.3377C25.3398 5.77552 25.3067 4.1551 25.2447 3.73346C25.129 2.94806 24.9822 2.42308 24.7342 1.91876C24.4263 1.29044 24.0522 0.843999 23.554 0.513302C23.1923 0.273547 22.7831 0.114398 22.3305 0.0399914C22.1693 0.0131223 21.6277 0.00278802 21.5347 0.0234566Z" fill="#FF3A3A"/>
</svg>
