<?xml version="1.0" standalone="no"?>
<!DOCTYPE svg PUBLIC "-//W3C//DTD SVG 1.1//EN" "http://www.w3.org/Graphics/SVG/1.1/DTD/svg11.dtd" >
<svg xmlns="http://www.w3.org/2000/svg">
<metadata>Generated by IcoMoon</metadata>
<defs>
<font id="icon" horiz-adv-x="1024">
<font-face units-per-em="1024" ascent="960" descent="-64" />
<missing-glyph horiz-adv-x="1024" />
<glyph unicode="&#x20;" horiz-adv-x="512" d="" />
<glyph unicode="&#xe900;" glyph-name="arrow1" horiz-adv-x="1504" d="M1220.458 30.837c-32.531 45.317-49.594 72.445-48.762 76.888 0.851 5.531 6.32 7.618 24.184 9.718 22.666 3.33 165.269 15.15 167.862 14.238 0.648-0.227 1.762-5.355 2.742-11.893 1.848-13.402-6.944-39.459-34.619-103.693-26.080-59.696-31.621-66.128-51.726-59.062-7.458 2.621-22.163 20.906-59.682 73.803zM1303.645 45.688c11.458 29.491 20.557 54.347 19.926 55.662-0.938 2.515-99.611 4.766-127.579 2.938l-15.995-0.936 17.493-20.722c32.33-37.595 77.832-87.47 81.4-88.723 2.269-0.798 10.712 17.003 24.755 51.781zM1222.504 183.87c-3.014 1.787-9.578 19.397-14.81 38.723-27.688 102.637-89.71 172.891-217.67 246.28-81.648 46.547-165.742 83.024-360.568 155.866-201.637 75.234-268.491 108.931-332.653 167.914-58.378 53.672-111.477 137.913-97.181 154.749 3.104 3.646 4.803 1.227 8.616-11.772 13.616-45.227 76.707-116.586 144.342-162.579 46.984-32.179 77.222-44.627 290.374-120.267 110.467-39.186 220.69-80.109 244.862-91.154 194.824-86.322 287.944-156.211 336.598-253.101 30.549-60.285 42.85-133.104 22.619-133.646-6.31-0.331-16.573 3.64-24.531 8.987z" />
<glyph unicode="&#xe901;" glyph-name="arrow2" horiz-adv-x="1136" d="M696.944 13.554c33.487-9.297 69.934-13.831 102.571-12.784 45.378 1.56 71.503 8.413 76.738 19.783l2.619 5.684-7.007-4.684c-8.931-6.095-17.187-7.398-47.541-8.475-88.894-2.957-159.372 21.333-215.837 74.387-42.986 40.211-79.301 102.105-93.905 159.614-5.361 21.608-10.997 61.462-9.251 65.251 0.485 1.053 3.934 0.231 7.513-1.417 11.37-5.236 43.268-10.228 63.488-10.098 23.847 0.247 54.712 11.298 72.913 25.883 39.022 31.538 60.847 88.35 55.441 143.665-2.139 21.4-10.106 43.444-19.456 53.619-7.957 8.769-27.829 17.154-41.007 17.353-6.119 0.011-20.218-3.449-31.175-7.846-56.854-22.048-110.302-92.114-128.984-169.257-1.921-8.047-41.647 27.601-61.616 55.171-48.869 68.441-83.635 172.494-98.163 295.554-2.544 21.077-4.871 54.814-5.196 74.613-0.432 32.864-1.912 40.181-8.228 43.089-2.947 1.357-14.416-9.693-17.81-17.062-6.883-14.949-5.648-59.923 3.443-126.631 18.423-134.552 62.198-247.858 121.993-314.184 14.94-16.323 40.328-38.223 53.74-45.674 6.657-3.831 7.224-5.369 8.458-27.628 5.99-96.161 58.508-191.036 137.546-249.381 13.705-10.139 62.812-34.284 78.714-38.545zM510.213 360.613c1.515 7.724 8.008 25.149 16.444 43.466 11.91 26.415 16.048 33.186 28.727 48.529 24.26 29.404 53.304 48.694 81.437 54.368 18.242 3.593 28.772-4.573 35.834-27.476 12.109-37.987-4.303-98.565-32.97-123.134-11.907-10.339-32.25-19.6-49.473-22.642-21.561-3.596-57.49 0.955-74.366 9.748-8.017 4.202-8.228 4.3-5.632 17.14zM289.963 850.451c14.295 0.562 36.491 0.549 49.167-0.185 12.678-0.734 23.88-0.789 25.11-0.335 3.69 1.363-6.4 24.894-23.894 56.174-9.258 17.024-18.305 30.631-19.647 30.484-1.344-0.147-2.414 0.856-2.674 2.507-0.571 4.856-4.197 4.74-9.325-0.299-4.627-4.505-45.001-65.023-51.547-77.575-5.093-9.394 2.876-12.043 32.809-10.771zM272.135 872.697c1.601 1.815 10.707 12.167 20.202 23.362 9.396 10.985 17.289 20.365 17.597 20.479 0.405 0.324 6.319-6.228 13.012-14.414 14.245-17.278 30.34-40.513 28.399-41.405-2.055-0.585-76.031 6.687-79.497 8.028-1.992 0.662-1.831 2.119 0.288 3.951z" />
<glyph unicode="&#xe902;" glyph-name="arrow3" horiz-adv-x="1095" d="M616.024 21.966c30.589-12.745 64.538-21.335 95.542-24.193 43.12-3.876 68.646-0.472 74.94 9.668l3.148 5.070-7.182-3.607c-9.17-4.713-17.134-4.971-45.981-2.411-84.457 7.686-148.276 38.98-195.445 95.837-35.928 43.116-62.99 105.961-70.025 162.097-2.524 21.078-3.155 59.45-1.057 62.83 0.582 0.939 3.75-0.245 6.942-2.228 10.14-6.294 39.731-14.779 58.879-17.041 22.592-2.579 53.098 4.238 72.040 15.892 40.641 25.238 67.99 76.417 69.4 129.391 0.5 20.501-4.439 42.298-12.086 53.028-6.494 9.235-24.307 19.512-36.752 21.255-5.789 0.732-19.537-0.879-30.422-3.747-56.395-14.157-115.227-74.146-142.003-144.933-2.765-7.388-36.15 31.026-51.792 59.467-38.167 70.519-58.79 173.071-58.023 291.221 0.080 20.242 1.856 52.437 3.884 71.208 3.467 31.146 2.93 38.244-2.703 41.741-2.629 1.632-14.784-7.471-18.864-14.044-8.277-13.332-12.411-56.029-11.677-120.22 1.563-129.481 29.619-241.851 78.373-311.658 12.211-17.207 33.649-40.921 45.46-49.553 5.846-4.41 6.202-5.932 4.744-27.138-5.672-91.691 32.829-187.652 100.731-252.178 11.772-11.209 55.388-39.847 69.931-45.754zM480.276 372.365c2.344 7.129 10.544 22.851 20.685 39.187 14.384 23.589 19.098 29.507 32.905 42.528 26.42 24.961 56.176 39.786 83.463 41.836 17.684 1.249 26.685-7.72 30.665-30.222 6.977-37.37-15.697-92.752-45.718-112.616-12.484-8.378-32.825-14.742-49.479-15.589-20.824-0.86-54.283 7.684-69.214 17.994-7.089 4.922-7.278 5.039-3.307 16.882zM329.653 861.808c13.592-1.154 34.591-3.784 46.499-5.974s22.502-3.563 23.719-3.278c3.652 0.854-3.118 24.309-15.983 55.968-6.752 17.199-13.706 31.141-14.994 31.161-1.29 0.020-2.183 1.094-2.234 2.687 0.032 4.662-3.413 4.98-8.859 0.817-4.908-3.716-50.246-56.215-57.92-67.32-5.926-8.288 1.3-11.733 29.772-14.060zM315.409 884.959c1.729 1.528 11.566 10.25 21.87 19.722 10.186 9.285 18.759 17.229 19.064 17.301 0.422 0.259 5.245-6.638 10.611-15.172 11.441-18.028 23.931-41.91 21.987-42.525-2.013-0.311-71.15 15.294-74.271 16.971-1.806 0.861-1.482 2.221 0.738 3.704z" />
<glyph unicode="&#xe903;" glyph-name="arrow4" horiz-adv-x="957" d="M601.314 63.697c-20.109-23.562-44.779-45.080-69.415-60.576-34.307-21.467-57.026-29.424-66.562-23.634l-4.768 2.896 7.512 0.030c9.638-0.051 16.386 3.102 39.352 17.437 67.157 42.128 107.123 95.205 122.398 162.553 11.716 51.138 7.697 114.973-10.181 164.745-6.811 18.638-22.512 50.894-25.691 52.825-0.883 0.535-3.022-1.792-4.844-4.794-5.791-9.535-26.871-29.125-41.877-39.108-17.743-11.705-46.057-18.924-66.776-17.22-44.553 3.851-88.998 34.948-112.578 78.514-9.087 16.879-14.188 37.138-12.351 49.317 1.508 10.445 12.011 26.546 21.649 33.263 4.516 3.059 16.658 7.53 26.945 9.742 53.001 12.049 127.418-13.078 179.675-60.764 5.431-4.99 17.014 41.154 18.025 71.479 1.992 74.929-24.188 169.141-74.795 267.311-8.627 16.841-23.725 42.929-33.355 57.72-16.063 24.498-18.617 30.642-15.4 35.939 1.501 2.472 15.485 0.024 21.665-3.729 12.537-7.614 34.042-41.46 60.58-95.281 53.458-108.602 77.595-214.142 66.475-292.956-2.903-19.508-10.745-48.344-16.939-60.535-3.009-6.15-2.662-7.569 7.523-24.631 43.508-74.037 51.996-170.317 22.68-252.826-5.072-14.324-29.32-56.643-38.945-67.718zM566.284 413.214c-4.97 4.951-18.454 14.59-33.818 23.919-21.967 13.58-28.4 16.52-45.417 21.536-32.582 9.633-63.658 9.409-87.273-0.423-15.271-6.439-18.98-17.722-12.781-38.164 9.987-34.104 52.313-70.683 85.741-74.545 13.951-1.704 33.598 1.594 47.84 7.932 17.724 8.091 42.003 29.363 50.089 44.272 3.829 7.101 3.937 7.278-4.382 15.472zM484.85 884.934c-10.842-6.71-27.236-17.784-36.236-24.646s-17.251-12.486-18.386-12.765c-3.406-0.831-7.681 21.584-10.347 53.417-1.645 17.194-1.744 31.757-0.679 32.318s1.357 1.835 0.726 3.185c-1.999 3.873 0.739 5.594 7.040 4.427 5.663-1.022 65.662-25.612 76.755-31.624 8.446-4.403 3.879-10.331-18.873-24.313zM486.933 910.258c-2.088 0.543-13.976 3.653-26.572 7.192-12.419 3.432-22.926 6.429-23.21 6.359-0.461 0.038-1.565-7.751-2.43-17.137-1.912-19.868-2.223-45.059-0.344-44.75 1.811 0.593 52.845 42.841 54.737 45.559 1.142 1.482 0.297 2.479-2.182 2.775z" />
<glyph unicode="&#xe904;" glyph-name="arrow-d" horiz-adv-x="1536" d="M271.387 794.88l496.641-496.64 496.639 496.64c49.919 49.92 130.559 49.92 180.479 0s49.92-130.56 0-180.48l-587.519-587.52c-49.92-49.92-130.56-49.92-180.479 0l-587.521 587.52c-49.92 49.92-49.92 130.56 0 180.48 49.919 48.64 131.839 49.92 181.759 0z" />
<glyph unicode="&#xe905;" glyph-name="arrow-l" horiz-adv-x="614" d="M538.46 116.907l-331.093 331.093 331.093 331.093c33.28 33.28 33.28 87.040 0 120.32s-87.040 33.28-120.32 0l-391.68-391.68c-33.28-33.279-33.28-87.039 0-120.319l391.68-391.68c33.28-33.28 87.040-33.28 120.32 0 32.427 33.28 33.28 87.893 0 121.173z" />
<glyph unicode="&#xe906;" glyph-name="arrow-r" horiz-adv-x="614" d="M75.935 116.907l331.094 331.093-331.094 331.093c-33.28 33.28-33.28 87.040 0 120.32s87.040 33.28 120.32 0l391.68-391.68c33.28-33.279 33.28-87.039 0-120.319l-391.68-391.68c-33.28-33.28-87.040-33.28-120.32 0-32.427 33.28-33.28 87.893 0 121.173z" />
<glyph unicode="&#xe907;" glyph-name="attention" d="M460.8 294.4h102.4v-102.4h-102.4v102.4zM460.8 704h102.4v-307.2h-102.4v307.2zM511.488 960c-282.624 0-511.488-229.376-511.488-512s228.864-512 511.488-512c283.136 0 512.512 229.376 512.512 512s-229.376 512-512.512 512zM512 38.4c-226.304 0-409.6 183.296-409.6 409.6s183.296 409.6 409.6 409.6c226.304 0 409.6-183.296 409.6-409.6s-183.296-409.6-409.6-409.6z" />
<glyph unicode="&#xe908;" glyph-name="basket-big" d="M305.781 149.333c-54.755 0-99.058-44.8-99.058-99.554s44.303-99.554 99.058-99.554c54.755 0 99.555 44.8 99.555 99.554s-44.8 99.554-99.555 99.554zM803.558 149.333c-54.754 0-99.059-44.8-99.059-99.554s44.305-99.554 99.059-99.554c54.754 0 99.554 44.8 99.554 99.554s-44.8 99.554-99.554 99.554zM731.383 398.225c37.333 0 70.182 20.407 87.108 51.268l178.206 323.059c18.415 32.853-5.474 73.671-43.307 73.671h-736.712l-46.791 99.556h-162.773v-99.556h99.555l179.2-377.811-67.2-121.459c-36.337-66.701 11.449-147.84 87.111-147.84h597.331v99.554h-597.331l54.755 99.558h370.847zM263.968 746.668h604.798l-137.382-248.888h-349.442l-117.973 248.888z" />
<glyph unicode="&#xe909;" glyph-name="basket-plus" horiz-adv-x="975" d="M536.381 569.905c26.819 0 48.762 21.943 48.762 48.762v97.524h97.524c26.819 0 48.762 21.943 48.762 48.762s-21.943 48.762-48.762 48.762h-97.524v97.524c0 26.819-21.943 48.762-48.762 48.762s-48.762-21.943-48.762-48.762v-97.524h-97.524c-26.819 0-48.762-21.943-48.762-48.762s21.943-48.762 48.762-48.762h97.524v-97.524c0-26.819 21.943-48.762 48.762-48.762zM292.571 131.048c-53.638 0-97.036-43.886-97.036-97.524s43.398-97.524 97.036-97.524c53.638 0 97.524 43.886 97.524 97.524s-43.886 97.524-97.524 97.524zM780.19 131.048c-53.638 0-97.036-43.886-97.036-97.524s43.398-97.524 97.036-97.524c53.638 0 97.524 43.886 97.524 97.524s-43.886 97.524-97.524 97.524zM346.21 374.857h363.276c36.571 0 68.754 19.992 85.333 50.225l164.815 298.91c13.166 23.406 4.389 53.15-19.017 66.316-23.406 12.678-53.15 4.389-65.829-19.017l-165.303-298.91h-342.309l-194.56 411.063c-7.802 17.067-25.356 27.794-43.886 27.794h-79.97c-26.819 0-48.762-21.943-48.762-48.762s21.943-48.762 48.762-48.762h48.762l175.543-370.103-65.829-118.979c-35.596-65.341 11.215-144.823 85.333-144.823h536.381c26.819 0 48.762 21.943 48.762 48.762s-21.943 48.762-48.762 48.762h-536.381l53.638 97.524z" />
<glyph unicode="&#xe90a;" glyph-name="bible" horiz-adv-x="1034" d="M754.617 855.2c-123.6-41.8-237.199-126.799-292.6-219l-9.8-16.4-12.8 17.6c-25.399 35.4-72 77.2-117.8 105.599-34.201 21.2-101.601 53-112.2 53-4.6 0-49.8-46.6-49.8-51.6 0-4.8 5-10.4 9.4-10.4 1.6 0 12.2 9.599 23.2 21.2l20.4 21.2 17-7.4c96.4-41.4 169.599-99 209.6-165 10.199-16.8 13.599-17.4 24.8-4.6 48.001 54.999 117 104 185.2 131.399 51.401 20.6 102 31.4 160.8 34.4l27.2 1.4 4.2-13.8c2.2-7.6 6.199-21.4 8.8-30.799l4.799-17-16.2-1.4c-79.4-7-131-18.6-188.6-42.8-55.8-23.399-111.4-59.2-149.8-96.799l-14.2-14.001h-83.2l-18.2 17.6c-64.799 62.6-175 128.6-265.8 159.2-11.4 3.8-17.4 1.8-17.4-5.799 0-2.601 5.8-24.801 13-49.401 32-108.599 82.801-303.4 104.8-401.599 4.2-19.2 8.4-36.4 9.2-38.001 0.6-1.6 10.8-9 22.6-16.4 52.999-33 104-75 166.199-137l46.8-46.6h48.2l48.2 0.201 23 20.999c70.6 65 146.8 113.401 238.8 151.6 30.2 12.6 76.6 29 90.801 32.201 3.6 0.6 7.199 2.799 8.199 4.6s5.2 104.4 9.4 228c7 208.6 7.4 224.6 4.2 227.8-2.4 2.399-9.8 3.799-31.8 5.199l-28.799 2.201-10.6 37.6c-6 20.6-12 38.6-13.599 39.8-4.2 3.6-70.2 1-100.4-4.2-79.001-13.2-150.801-42.8-213.2-88.2-24-17.4-20.801-12 12.199 20.401 60.201 58.399 128.4 100.199 206.8 125.799l23 7.601 3.201-16.801c1.799-9.199 4.399-18.2 5.799-19.8 3.4-4 8.601-3.8 12.8 0.8 3.201 3.6 3.201 5-0.799 27.399-2.4 13.2-5.2 25.001-6.4 26.401-3.4 4-11.4 2.8-38.601-6.4zM150.017 695c79.8-32.8 165-86.801 222-140.8 20-18.8 18-13.001 21.6-67.201 5.4-82.8 22.8-213.999 46.2-349 5.6-31.399 10.4-59.2 11.2-61.999 0.799-4.2-0.601-3.201-8.001 5-13 14.599-69.4 66.2-96.799 88.8-26.2 21.2-63 48.001-86.801 63l-15 9.4-2.6 12.4c-15.2 75.8-76.6 312.801-110.001 425.2-6.4 21.4-7 24.2-5 24.2 0.6 0 11.001-4 23.2-9zM918.017 682.2c0.8-0.6-2-97.201-6-214.6l-7.2-213.2-23.2-7.4c-110-35.201-223.799-100-303.599-173.4-6.8-6.4-13.2-11.6-14.2-11.6-0.8 0-4.4 16.6-8 37-18.401 107.2-36.2 240.6-50.2 378.4l-6.2 59.6 15.8 15.4c76.4 74 195 123.6 314 131.4 26.2 1.8 86.399 0.6 88.8-1.6zM481.618 530.4c0-8.799 15.4-149.599 23-211.4 10.799-85.8 34.2-240.6 40.199-263.8l1.201-5.199-35.601 0.4-35.799 0.6-5.4 29c-29.4 157.399-51.801 322-58.801 430.599l-1.4 21.401h36.4c19.801 0 36.2-0.8 36.2-1.601zM717.818 575c-15.8-4.8-29.8-9.8-31-11-1.4-1.4-1-13.6 1.6-42.001 3.4-38.6 3.4-44-1.2-44-3.4 0-46.2-22-50.2-25.8-3.201-3.201-3.201-6.001-1.201-39.2 1.201-19.8 3-37.2 4.2-38.4 3.4-4.2 10.8-3 21.8 3.6 10.6 6.2 37 19.8 38.6 19.8 0.4 0 1.8-8.799 3.001-19.4 4-31.6 11.8-83.8 16.4-108.2 6-32.2 5.4-32 41.8-16.2 15.599 6.8 28.799 13.8 29.399 15.401 0.601 1.4-1.2 19.599-4 40-6 41.8-11.4 94-11.4 108.6v9.599l13.6 4c7.4 2.201 18.6 5.4 24.8 7.2 7 1.799 12.4 4.6 13.6 7 1 2 2 17 2 33.6 0 24.4-0.6 30.4-3 32.4-3.601 3-24.6 1.6-44.8-3.199-7-1.601-13.6-2.201-14.2-1.4-0.8 1-2.6 12.8-3.8 26.6-3.6 38.4-4.6 44-7.6 47.2-4 4-6 3.6-38.4-6.2zM742.418 557.6c0.6-2.601 2.4-18.2 4-34.601 3.199-32.399 4-36.199 8.2-37.799 1.6-0.601 12.599 1.2 24.399 3.799 11.8 2.8 24 5 27.2 5 5.4 0 5.4 0 5.4-14.4 0-22.8 0.8-21.8-25.6-29.2-31-8.601-31-8.8-29.399-31.4 2.399-35 7.199-80.4 11-107 2.2-14.8 4-28.4 4-30 0-3.201-29.4-17.4-31.4-15.2-1.799 1.8-12 66-17.4 109.2-5.4 41.4-6.8 46-14.4 46-1.4 0-13.8-5.6-27.4-12.4l-25-12.6-1.2 11.8c-0.6 6.4-1.201 16.6-1.201 22.201v10.599l16.6 8c9 4.601 21.6 10.4 28 13.2 6.2 2.8 12 6.2 12.6 7.8s-0.4 16.6-2 33.6c-1.8 17-3.201 34.6-3.201 39.2v8.199l14.6 4.4c7.8 2.201 15.4 4.601 16.4 5.001 4 1.399 5 1 5.8-3.4z" />
<glyph unicode="&#xe90b;" glyph-name="bow" horiz-adv-x="1600" d="M1409.998 933.898c-3.694-6.157-24.629-12.314-45.563-12.314-98.515 0-238.899-55.415-395.291-155.161-82.507-52.952-83.739-54.184-103.442-29.555-23.397 25.861-93.589 33.25-125.606 13.547-12.315-8.621-28.323-4.926-49.258 9.851-48.027 34.48-152.699 84.969-257.371 124.375-96.053 38.175-150.235 46.795-150.235 24.629 0-6.157 6.157-12.314 14.776-12.314 25.861 0 373.126-162.55 401.45-188.411 14.778-13.546 27.093-35.71 27.093-46.794 0-12.315-12.315-29.555-27.093-36.944-44.331-23.397-200.725-141.616-272.147-204.419-105.904-94.821-136.691-115.755-156.394-107.134-9.851 4.925-38.174 12.314-62.803 17.24-23.397 3.694-50.489 12.314-57.878 17.24-25.86 14.778-16.009 76.349 22.166 149.005 22.166 43.099 36.944 87.432 35.712 115.755v44.331l-22.166-49.258c-12.314-27.091-36.943-70.192-54.183-97.283-62.804-91.126-59.109-182.253 7.389-210.576l39.406-17.24-88.663-40.638c-49.258-22.166-89.895-44.331-89.895-49.258 0-27.091 110.83 11.083 156.393 54.184 33.249 30.786 114.524 62.803 114.524 44.331 0-17.24 105.904 46.795 178.558 107.136 34.482 28.323 100.979 78.811 147.773 110.829l86.202 60.341-51.72-57.878c-29.555-32.016-52.952-62.803-52.952-70.192 0-20.934 41.869-13.546 73.886 13.547 29.554 24.629 25.859 24.629-33.25 3.693-12.314-4.925 1.232 16.010 30.786 45.565 28.323 30.786 51.722 61.571 51.722 68.96 0 25.861 30.786 24.629 51.72-2.462 19.702-25.861 17.24-30.787-86.202-185.949-113.291-167.475-302.934-379.283-331.258-369.432-8.619 3.694-16.008-1.23-16.008-11.082 0-24.629 11.083-23.398 61.573 7.387 92.357 56.646 306.627 321.406 386.672 476.568 19.702 38.174 44.331 52.952 44.331 25.861 0-22.166 96.053-171.171 158.856-243.826 75.118-89.894 238.899-210.576 284.462-210.576 48.026 0 57.878 20.934 14.778 30.786-60.341 12.315-243.826 172.402-323.869 280.768-40.637 54.184-82.507 115.755-93.589 136.691-19.704 36.942-18.472 38.174 25.859 76.349 44.333 38.174 55.414 66.498 40.638 103.44-9.853 24.629 270.917 163.782 385.44 192.105 44.333 9.852 84.97 24.629 92.358 30.786 19.702 18.472 100.978 12.314 129.301-11.083 38.174-30.786 45.563-116.988 18.472-198.261-25.861-80.045-18.472-107.136 16.008-50.49 55.414 89.894 50.486 211.808-11.082 263.528-39.406 33.249-124.376 44.332-140.386 19.703zM833.685 717.165c3.694-9.851 14.778-16.008 23.398-12.314 9.851 3.693 25.859-7.389 38.174-25.861 20.934-30.786 19.702-32.018-22.166-66.498-50.49-41.869-54.184-41.869-87.432-12.315-29.555 29.555-43.101 110.83-19.704 125.608 25.861 17.24 59.11 12.314 67.73-8.621zM185.946 903.111c-59.109-32.017-87.432-130.532-56.646-189.641 23.397-45.565 62.803-54.184 49.257-9.853-19.703 64.035-19.703 82.507 0 123.144 11.083 23.397 33.25 48.026 50.49 56.646 17.24 7.389 27.091 19.703 23.397 25.86-9.851 16.009-29.554 13.546-66.498-6.157zM1114.459 741.794c-88.664-18.472-178.558-46.795-178.558-55.416 0-6.157 3.694-11.082 9.851-11.082 11.083 0 160.086 34.48 192.104 44.331 14.778 4.926 19.704 2.462 14.778-6.157-12.314-18.472 8.621-17.24 27.091 1.23 30.787 30.787 7.389 41.87-65.266 27.093zM1114.451 687.61c-4.926-7.389 7.389-12.314 29.555-12.314 19.702 0 40.637-6.157 44.331-12.315 4.926-7.389 3.694-12.314-2.462-11.083-36.944 6.158-114.525-3.693-108.366-13.546 16.008-27.091 153.93-4.925 153.93 24.629 0 6.158-14.778 14.778-33.25 19.704-19.702 3.694-43.099 9.851-55.414 12.314-11.083 3.694-23.397 0-28.323-7.389zM370.664 676.526c-8.619-6.157-13.546-16.008-9.851-22.165 4.926-7.389-8.621-24.629-28.323-39.406-51.72-36.944-48.026-55.416 9.851-46.795 52.952 7.389 174.866 59.109 155.162 66.498-7.389 2.462-43.101-6.157-77.581-20.934-81.275-30.786-103.44-30.786-59.109 1.232 18.472 13.546 29.555 30.786 25.861 38.174-4.926 7.389 24.629 11.083 82.506 9.851 113.293-3.694 139.154 0 91.126 12.315-51.72 13.546-168.707 13.546-189.642 1.23zM954.368 614.955c-8.619-16.008 236.437-173.632 270.917-173.632 24.629 0-9.851 30.786-113.291 102.21-120.682 82.506-144.080 92.357-157.626 71.422zM1509.749 581.707c-3.694-11.083-7.389-45.563-7.389-78.813 0-32.018-3.694-76.349-7.389-97.283l-7.389-38.174h-89.894c-71.424 0-96.053 4.925-121.912 25.859-25.861 19.704-32.018 20.934-32.018 6.158 0-9.853 14.776-29.555 32.018-43.101 27.091-20.934 50.488-25.861 123.144-25.861 121.912 0 128.069 7.389 128.069 155.162 0 115.755-2.462 132.995-17.24 96.053zM949.442 490.579c66.498-66.499 72.656-70.192 72.656-44.333 0 20.934-92.358 105.904-116.987 105.904-9.851 0 9.851-27.091 44.331-61.571zM862.014 531.216c1.23-19.702 56.645-107.134 71.422-112.061 8.621-2.462-2.462 23.398-23.397 57.878-38.174 61.571-48.026 72.654-48.026 54.182zM1386.606 291.085c4.925-8.619 17.24-25.859 28.323-39.406 18.47-22.165 17.24-22.165-54.184-13.546-105.904 13.546-120.682 13.546-125.606-1.23-6.157-19.704 144.078-46.795 199.493-36.944 52.952 9.851 55.414 32.018 4.926 73.886-39.406 33.25-67.73 41.869-52.952 17.24zM1240.062 199.96c-28.323-28.323 116.987-179.79 152.699-158.856 8.619 6.157-9.853 29.555-48.027 62.803-34.48 30.786-66.498 65.267-70.192 78.813-7.389 24.629-20.934 30.786-34.48 17.24zM61.575 148.24c0-12.315 45.563-32.018 99.746-44.333 18.472-3.694 41.869 0 54.184 9.853 22.165 16.008 20.934 17.24-13.546 23.397-94.821 18.472-140.385 22.166-140.385 11.083zM241.363 46.029c-11.082-54.184-8.619-97.283 3.694-97.283 11.083 0 25.861 59.109 25.861 105.904 0 43.099-19.702 35.71-29.555-8.621z" />
<glyph unicode="&#xe90c;" glyph-name="bow-two" horiz-adv-x="1424" d="M1012.821 917.953c-44.794-23.652-129.11-85.409-185.76-137.967-57.968-52.56-115.934-95.922-129.109-95.922-14.493 0-34.254-2.627-43.475-6.57-10.541-3.942-51.381 14.454-90.904 42.048-117.253 80.152-334.63 122.2-424.217 81.466-17.127-7.884-50.063-48.617-72.459-90.665-52.698-94.606-56.65-186.586-13.174-265.424 40.841-72.269 162.046-134.026 242.409-124.827 69.826 7.883 163.363 70.955 225.283 153.734 26.349 35.478 50.062 63.072 52.698 61.758 1.317-2.629-2.635-24.966-9.222-49.931-7.904-23.653-13.174-64.386-13.174-88.037 0-43.362-40.84-137.968-65.872-153.736-6.587-3.942-35.571-1.314-64.555 7.883-100.125 30.222-200.251-28.907-231.869-136.653-23.714-80.154-55.333-105.118-134.379-103.805-57.967 1.314-65.872-7.883-43.476-51.245 19.762-34.163 89.586-31.536 133.062 5.256 19.761 15.768 47.428 52.558 61.92 81.466 44.794 89.352 84.317 118.259 181.806 136.654 179.173 32.85 230.554 88.037 248.997 264.11 9.222 101.176 42.158 141.909 89.587 115.63 71.141-36.792 180.49-170.818 239.774-293.018 60.602-122.2 100.125-164.248 155.458-164.248 9.222 0 48.746-9.198 85.634-19.709 52.698-15.768 73.778-30.222 88.269-60.443 11.858-21.024 17.126-43.362 14.491-49.931-6.587-10.512 31.619-27.594 63.238-27.594 22.395 0-3.954 107.746-32.936 139.282-44.794 47.302-131.746 84.094-200.251 84.094-79.046 0-105.397 24.965-139.65 135.339-40.84 134.027-61.92 174.76-121.205 239.144l-56.65 60.443 71.142-45.989c39.523-26.28 76.411-47.302 81.68-47.302s31.619-14.454 57.968-32.85c51.381-35.478 109.347-40.734 212.109-21.024 163.362 31.536 227.917 174.758 135.696 296.958-22.397 28.909-55.333 82.781-72.459 119.573-35.571 76.211-47.427 84.095-143.602 84.095-52.698 0-89.586-10.512-152.822-42.047zM1251.277 920.581c13.174-7.884 25.032-22.338 25.032-32.849 0-15.768-7.904-15.768-48.746 2.628-31.619 11.826-72.459 17.082-111.982 14.454-69.824-7.884-79.046-2.628-32.936 15.768 40.84 15.768 137.014 15.768 168.632 0zM1223.611 861.452c96.173-49.931 152.822-208.922 97.491-270.679-40.842-44.677-118.571-77.525-183.125-77.525-54.016 0-67.19 5.254-102.762 47.302-44.792 49.931-148.87 110.374-192.346 110.374-19.762 0-2.635 23.651 71.142 97.234 54.014 53.874 105.395 99.863 114.616 103.805 36.89 14.454 158.094 7.884 194.982-10.512zM894.251 781.299c-52.698-52.56-131.746-109.061-131.746-91.979 0 9.198 171.269 152.422 181.808 152.422 3.952 0-18.445-27.594-50.062-60.443zM230.259 769.474c-35.571-10.512-69.824-23.653-77.729-31.536-26.349-26.28-35.571-14.454-14.492 18.395 18.444 28.909 30.3 32.85 89.585 31.536l67.19-1.314-64.555-17.082zM505.605 718.227c61.92-32.848 72.459-42.046 48.746-44.675-28.984-3.941-164.68 64.386-181.806 91.979-13.174 19.71 40.84 1.314 133.061-47.304zM433.146 690.634c39.523-24.965 84.317-45.989 101.443-45.989s30.301-5.256 30.301-13.139c0-6.57-6.587-13.141-13.174-13.141-7.904 0-52.698-52.558-100.125-116.944-92.221-124.827-131.744-151.107-189.712-130.083-75.094 27.594-171.268 157.677-171.268 231.261 0 93.291 54.015 132.712 184.442 132.712 75.094 0 94.856-5.256 158.093-44.677zM1394.878 634.133c0-43.362-7.904-64.384-34.253-90.664-43.477-43.362-52.698-31.536-19.762 23.651 17.126 27.594 27.666 68.328 27.666 103.805 0 43.362 3.952 53.874 13.174 39.419 6.587-10.512 13.174-44.675 13.174-76.211zM707.174 640.702c3.952-15.766-5.27-22.338-30.302-22.338-30.301 0-32.936 2.629-19.762 27.594 17.128 30.222 43.477 27.594 50.064-5.256zM885.029 628.877c67.189-27.594 127.792-70.954 127.792-91.978 0-9.198-81.682 31.534-113.301 56.501-9.222 7.883-38.205 23.651-65.872 38.106-69.824 34.163-32.936 32.85 51.381-2.629zM570.16 568.434c-28.984-27.592-73.778-78.838-102.76-113.002-27.667-34.163-52.699-59.13-56.651-55.187-7.904 7.885 106.714 149.794 158.093 194.469 59.285 52.56 60.603 34.163 1.318-26.28zM111.69 469.886c13.175-15.768 42.158-48.618 64.555-73.584l39.523-44.675-59.285 32.85c-71.142 39.419-105.395 99.862-104.078 181.33v59.13l17.127-63.072c9.222-34.163 27.666-74.896 42.158-91.978zM773.046 599.97c39.523-21.024 105.395-88.037 138.331-141.909 36.888-59.13 25.030-56.502-30.301 6.57-28.984 32.85-79.048 76.211-111.984 98.549-31.618 21.022-55.331 42.046-50.062 47.302 11.858 10.512 13.174 10.512 54.016-10.512zM616.27 504.050c-6.587-35.477-14.493-90.664-18.445-124.829-3.952-34.163-19.762-74.896-34.253-91.978l-26.349-30.222 15.81 31.536c7.904 17.082 19.762 70.955 26.349 118.258 9.221 81.467 30.301 158.992 42.157 158.992 2.635 0 0-27.594-5.269-61.757zM1276.309 514.562c0-15.768-75.094-40.734-117.253-39.419-23.714 1.314-15.81 6.57 28.984 18.395 35.571 9.198 67.19 21.024 72.459 24.965 10.539 10.512 15.81 9.198 15.81-3.941zM393.622 224.171c15.81-10.51 13.174-13.139-14.491-13.139-18.445 0-61.92-14.454-96.174-31.536-56.65-28.907-60.602-28.907-38.205-5.256 22.395 26.28 89.586 61.758 115.934 61.758 7.904 1.314 22.397-5.256 32.936-11.827zM1230.198 126.938c64.555-27.594 57.968-36.792-9.222-14.454-31.619 10.512-68.507 21.024-82.998 23.653-18.445 3.941-15.81 6.57 10.539 7.883 19.762 0 56.65-7.883 81.682-17.082zM1350.085 8.68c6.587-27.594 5.27-35.478-6.587-28.909-7.904 5.256-14.491 19.71-14.491 31.536 0 13.139-9.222 38.106-21.078 55.187l-22.397 32.85 27.666-26.28c14.493-14.453 31.619-43.362 36.888-64.384zM93.246-28.112c-14.492-14.454-81.681-3.942-81.681 13.139 0 5.256 21.079 7.885 47.428 5.256 31.619-3.941 42.158-10.512 34.253-18.395z" />
<glyph unicode="&#xe90d;" glyph-name="check" horiz-adv-x="1045" d="M903.546 921.2c-48-25.2-85.402-53.4-131.002-99-54.799-55-99.599-111.8-160.8-204.201-71.2-107.398-121.199-193.6-178.4-306.799l-26.999-53.801-9.6 18.4c-30.4 57.399-71.401 114.199-105.801 146.4-18.999 18.001-32.599 26.999-52.599 35.401-11.401 4.8-14.999 5.399-38.6 5.399-25.6 0-26.4-0.201-39.8-6.799-33.6-16.602-57.2-54.4-57.2-92.201 0-14.4 7-38.4 16.4-56.599 7.6-14.4 172.401-250.4 204.401-292.401 21.999-28.8 37.399-41.6 59.398-49.001 33.001-11.398 77.6 2.801 106.202 33.801 23.398 25.201 35.799 49.6 61.399 121.6 93.399 260.8 211.799 515.2 347.2 746.6 15.2 25.8 29.801 50.6 32.201 55 2.598 4.4 4.8 8.6 4.8 9.6 0 3.6-8.8 0.4-31.2-11.4z" />
<glyph unicode="&#xe90e;" glyph-name="close" d="M972.778 908.068c-28.526 28.526-74.606 28.526-103.131 0l-357.666-356.937-357.669 357.668c-28.526 28.526-74.606 28.526-103.132 0s-28.526-74.606 0-103.131l357.669-357.669-357.669-357.669c-28.526-28.526-28.526-74.606 0-103.131s74.606-28.526 103.132 0l357.669 357.669 357.666-357.669c28.526-28.526 74.606-28.526 103.131 0s28.526 74.606 0 103.131l-357.666 357.669 357.666 357.669c27.794 27.794 27.794 74.606 0 102.4z" />
<glyph unicode="&#xe90f;" glyph-name="del" horiz-adv-x="796" d="M625.778 618.667v-568.889h-455.111v568.889h455.111zM540.444 960h-284.444l-56.889-56.889h-199.111v-113.778h796.444v113.778h-199.111l-56.889 56.889zM739.556 732.444h-682.667v-682.667c0-62.578 51.2-113.778 113.778-113.778h455.111c62.578 0 113.778 51.2 113.778 113.778v682.667z" />
<glyph unicode="&#xe910;" glyph-name="dislike" horiz-adv-x="1126" d="M716.8 960h-460.8c-42.496 0-78.848-25.6-94.208-62.464l-154.624-360.96c-4.608-11.776-7.168-24.064-7.168-37.376v-102.4c0-56.32 46.080-102.4 102.4-102.4h323.072l-48.64-233.984-1.536-16.384c0-20.992 8.704-40.448 22.528-54.272l54.272-53.76 337.408 337.408c18.432 18.432 29.696 44.032 29.696 72.192v512c0 56.32-46.080 102.4-102.4 102.4zM716.8 345.6l-222.208-222.208 68.608 273.408h-460.8v102.4l153.6 358.4h460.8v-512zM921.6 960h204.8v-614.4h-204.8v614.4z" />
<glyph unicode="&#xe911;" glyph-name="dress" horiz-adv-x="1035" d="M463.458 957c-20.601-6.4-37.201-21-46.201-40.8-7-14.8-8.6-43.8-3.4-61.4 6.799-23.6 21.2-47.2 41.8-68.4 21-22 62.4-52.4 70.8-52.4 10.399 0 56.199 31.601 79.799 55.2 15.201 15.2 17.801 21.399 11.401 27.6-5.8 6-11 3.6-29.801-14.401-17.799-17-55.199-44.4-60.599-44.4-5.201 0-40.001 28-56.6 45.6-26.8 28.4-38.201 51.2-38.4 77.4-0.2 23.4 10.8 42.8 29 51.8 22.8 11.4 41.2 4.2 58.4-22.8 3.201-5.2 6-7.2 10.6-7.6 5.8-0.6 6.8 0.2 12.8 11.6 7.201 13.6 12.8 18.6 25.201 21.8 16.4 4.4 35.199-3.4 49.2-20.6 9-10.8 15.4-12 20.601-4.2 4.6 7.2 1.199 14.4-13.401 27.8-26.6 24.8-64.8 26.6-88 4l-7-6.8-8.8 8c-15.4 14.2-37.6 19.2-57.4 13zM627.258 871.4c-2.4-2.6-4.4-7.2-4.4-10.2 0-6.8 8.2-15.2 15-15.2 7 0 14.999 8.4 14.999 15.6 0 12.6-16.799 19-25.6 9.8zM202.858 758c-20.4-10-38.001-19.2-39.4-20.601-2.6-2.6-151.4-246.6-156.2-256-2.4-4.799-2.4-6.2 0.2-10.199 4.4-6.6 64-41.601 69.8-40.801 5.2 0.601 6.4 2.401 53.6 79l32.8 53.6 5.6-51c2.8-28 5.4-54.6 5.4-59.2 0.2-5.4-5.201-23.6-15.8-53.601-8.8-24.999-15.999-47.4-15.999-49.799 0-9.2 1.199-9.4 68.4-9.4h63.6l6.001 8.6c12.4 17.799 10.399 17.4 18.2 4.2l7-11.8 63.8-0.6c57-0.4 64-0.2 67.401 2.8 1.999 1.999 3.6 4.6 3.6 5.799 0 1.401-7.6 23.6-17.001 49.4l-17 47 6 57.6c3.401 31.8 6.2 57.8 6.6 58.2 0.2 0.2 17.801-27.799 39-62.4 21.4-34.6 40.001-64.199 41.801-65.8 1.6-1.6 4.799-2.999 7.2-2.999 2.4 0 18.8 8.8 36.4 19.599 26.8 16.201 32 20.2 32.6 24.6 0.4 3.8-19 37.6-78.6 135.2l-78.999 130-38.201 18.2-38.2 18.4h-102.6l-36.999-18zM350.657 748c10.4-5.001 16.201-9 15.6-10.601-9.399-23.799-74.6-167-75.6-165.799-0.8 0.8-18 38.799-38.4 84.399l-37.2 83.001 32.8 16.799h43.199l43 0.2 16.6-8zM239.057 632c23.2-52.2 43.2-96.2 44.401-97.401 2.8-3.8 12.4-3.199 15.799 1 2.401 2.6 41.801 90.201 83.6 184.8l4.2 9.4 8.4-4c8.2-3.999 12-9.8 82.2-125.2 40.4-66.4 73.4-121 73.001-121.4s-9.4-5.6-19.801-11.8c-14.8-8.801-19.4-10.8-21.2-8.801-1.399 1.2-21.399 33.401-44.8 71.4-23.4 38.001-43.8 70.6-45.6 72.6-3.6 4-13 4.6-16.2 0.8-1.2-1.6-5.8-38.2-10.2-81.6l-8.2-78.999 14-39.001c7.799-21.6 14.199-39.799 14.199-40.599 0-0.601-21.399-1-47.4-0.8l-47.4 0.6-9.4 15.8c-5.4 8.8-11.2 16.799-13 17.799-5.799 3.4-12.199-2-22-18.4l-9.8-16.2h-94.8l11.6 33.401c6.6 18.599 12.8 36.2 14 39.2 3.199 8.399 3 13.8-5.001 91.4-4.799 46.999-8.2 72.599-10.199 75.6-2.2 3.6-4.401 4.4-9.2 4-6.001-0.601-8.6-4.201-52.001-74.601-24.999-40.599-46.199-74-47-74s-9.8 5.001-20 11c-12.8 7.6-18.4 12-17.8 14 0.6 1.6 33.2 56.199 72.8 120.999 63.8 104.801 72.8 118.401 79.8 122.401 4.201 2.4 8.4 3.799 9.2 2.999s20.4-44.199 43.8-96.399zM280.657 506.2c-7-7-7.4-14.199-1.199-21 6.4-7.2 16.799-7.799 23.4-1.199 5.8 5.799 5.4 16.799-1 23-6.6 6.599-14 6.4-21.2-0.801zM283.657 443.6c-9.399-4.4-11.199-17.2-3.8-24.6 10.601-10.8 27.001-4 27.001 11.199 0 12.2-11.8 19.001-23.2 13.401zM651.257 765.6c-5.6-3-14.6-23.2-20.4-45.401-11.6-45.4-9.399-87 7.201-135.2 8-22.8 11.8-28.2 19.599-26.2 9.4 2.4 10.2 8.2 3.201 27.2-11.601 31.6-14.8 48.001-14.6 79 0 23.4 0.999 31.2 5.2 46.999 2.8 10.4 6.4 22.401 8.2 26.6l3.199 7.4h52.001v-76.2l19.8-21.399c36.999-40.4 39.2-42.4 44.2-42.4s5.599 0.6 44.199 42.4l19.801 21.399v76.2h51.8l3.199-5.8c1.601-3.199 5.201-13.799 8.2-23.6 6.4-21 8.801-63.2 5.001-85.8-1.2-7.6-9.601-36-18.801-63.2l-16.4-49.6h-100.999c-88.201 0-101.6-0.399-105.601-3.199-4.2-3-4.4-4-4.4-43v-40.2l-12.8-20.2c-57.999-92.801-92.2-187.2-106.2-293.4-3.999-30-7.2-97.2-5.2-106.4 5.001-21.8 27.4-39 68.2-52.399 97.601-31.801 258.8-30.601 349.801 2.6 32.2 11.8 54 29.2 59.2 46.999 5.4 18.4-0.6 98-11.2 153.201-13.199 68.4-39.2 141.8-71 201.399-11.6 21.601-15.999 25.401-24.6 20.601-7-3.6-5.001-10.8 10.8-42 47.2-93.4 70.2-182.401 76-296.2 1.6-31.2-1-39.4-15.8-49.2-9.8-6.4-42.2-19.2-45.8-18.001-1.199 0.4-11.399 48.8-22.8 107.601-15.4 79.4-21.6 107.399-23.999 109.199-5.201 4-12.2 3-15.401-1.8-2.6-4.2-1-14.4 18.001-111.6 11.399-58.799 20.8-108 20.8-109.199 0-4.201-80.001-14.6-113.4-14.8h-8.6v116.599c0 110.6-0.199 117-3.6 120-4.799 4.4-11 4.201-14.999-0.2-3-3.4-3.401-14.6-3.401-119.999v-116.4h-7.799c-31.4 0-114.2 10.6-114.2 14.8 0 1.199 9.4 50.4 20.8 109.199 19 97.2 20.601 107.401 18 111.6-3.199 4.8-10.199 5.8-15.4 2-2.4-2-8.599-30.4-23.999-109.6l-20.801-107-5.2 0.4c-7.2 0.399-30.8 10-41.8 17-6.4 4-10.8 8.8-13.6 14.8-4.401 8.8-4.401 9.8-2.2 47.4 4.6 78.8 18.4 145.799 44.4 214.6 12.601 33 42.601 93.801 60.4 121.8l12.601 20 104.599 1c100.6 1 104.6 1.2 107.401 4.8 2.199 3.199 2.8 12.6 2.8 44.199v40.4l16.799 50.801c22.601 67.999 22.2 66.6 22 107.8-0.2 30.8-0.8 37.2-5.2 54-7.4 27.4-16.001 45.4-23 48.2-8.4 3.199-77 1.6-81.2-2-3-2.4-3.4-8.2-3.4-45l-0.2-42.199-20.8-22-21-22-21.001 22-20.8 22-0.2 42.199c0 36.8-0.399 42.601-3.4 45-4.6 4-75.399 5.001-82.2 1.401zM872.858 467v-29h-186v57.999h186v-29zM972.658 514.8c-1.401-1.6-2.8-8-3.4-14l-0.801-10.8h-9.8c-7.2 0-10.8-1-13.8-4-4.799-4.799-4.999-7.599-0.8-13.6 2.401-3.6 5.001-4.4 14-4.4h10.8v-8.4c0-11.8 3.8-18.4 10.6-19.2 8.801-1 11.401 2.6 11.401 15.8v11.8h10.6c12.601 0 18.001 3.201 18.001 11 0 7.801-5.4 11-18.001 11h-10.6v12c0 9.599-0.8 12.2-3.8 14-5.6 2.999-11.399 2.4-14.4-1.2zM283.059 321.399c-2-2.6-38.2-341.8-38.2-359.2 0-7 0.8-8.599 4.999-10.6 7.4-3.4 14.6 0.6 15.8 8.8 0.6 3.6 6.2 56.201 12.199 116.601 6.201 60.6 11.801 113.6 12.601 117.8 1 5.8 5.2-27.2 14.199-115 9.8-94.801 13.4-123.6 15.8-126.2 3.999-4.8 11-4.6 15.2 0.2 3.4 3.799 2.8 11.8-14.8 183.6-14.199 136.8-19.399 180.399-21.6 183.199-3.6 4-13 4.6-16.2 0.8zM166.658 302.6c-2.4-2.6-2.8-32.4-2.8-175 0-167.799 0-171.999 3.8-174.799 5.2-3.6 10.2-3.6 14 0.399 2.8 2.8 3.199 21.4 3.199 175.6 0 131.4-0.6 173-2.4 174.8-3.401 3.4-12.6 3-15.8-1zM400.059 302.8c-2.8-2.8-3.201-21.2-3.201-173.4 0-151 0.4-171 3.201-175 3.6-5.4 11-5.8 15.4-0.8 3.199 3.4 3.4 18.4 3.4 174.199 0 113.6-0.6 171.8-2 174.401-2.6 4.599-12.4 5.2-16.799 0.6zM48.857 170c-3-3-4-6.6-4-14v-10h-8.4c-11.8 0-18.4-3.8-19.2-10.6-1-8.801 2.6-11.401 15.8-11.401h11.8v-11c0-8.399 1-12 4-14.999 9-9 18-1.6 18 14.999v11h11.8c13.2 0 16.8 2.6 15.8 11.401-0.8 6.799-7.4 10.6-19 10.6h-8.6v10c0 10.4-4.6 18.001-11 18.001-1.6 0-4.8-1.8-7-4z" />
<glyph unicode="&#xe912;" glyph-name="end" horiz-adv-x="960" d="M322.56-32.64c-72.533 0-132.693 11.52-180.48 34.56-47.787 22.186-83.627 51.626-107.52 88.32-23.040 37.546-34.56 77.226-34.56 119.040 0 46.934 14.080 93.44 42.24 139.52 28.16 46.934 69.973 87.040 125.44 120.32 56.32 34.134 125.013 55.466 206.080 64-11.946 16.214-20.906 34.56-26.88 55.040-5.974 21.334-8.96 41.386-8.96 60.16 0.854 45.227 13.654 84.907 38.4 119.040 24.746 34.987 56.32 64.427 94.72 88.32 39.254 23.893 81.066 41.813 125.44 53.76 44.374 12.8 86.186 19.2 125.44 19.2 23.894 0 48.214-3.413 72.96-10.24 24.746-5.973 45.654-17.067 62.72-33.28s25.6-39.253 25.6-69.12c0-24.747-7.68-46.933-23.040-66.56s-34.134-29.44-56.32-29.44c-16.214 0-30.294 5.973-42.24 17.92s-17.92 25.6-17.92 40.96c0 17.92 5.546 32.427 16.64 43.52 11.946 11.947 26.454 17.92 43.52 17.92 7.68 0 16.214-2.56 25.6-7.68 10.24-5.12 16.64-10.24 19.2-15.36 0.854 3.413 1.28 8.107 1.28 14.080 0 23.040-9.386 39.253-28.16 48.64s-38.826 14.080-60.16 14.080c-34.134 0-73.814-8.533-119.040-25.6-45.226-16.213-89.174-43.093-131.84-80.64-15.36-13.653-31.146-31.573-47.36-53.76s-29.866-46.080-40.96-71.68c-11.094-24.745-16.64-49.92-16.64-75.52 0-19.626 3.414-36.694 10.24-51.2 12.8 0 27.306 0.426 43.52 1.28 17.066 1.706 34.56 2.56 52.48 2.56 22.186 0 39.68-4.694 52.48-14.080s19.2-20.054 19.2-32c0-8.534-5.12-16.64-15.36-24.32s-26.454-11.52-48.64-11.52c-28.16 0-53.76 5.974-76.8 17.92-22.186 12.8-39.68 25.6-52.48 38.4-56.32-7.68-104.107-28.586-143.36-62.72s-69.12-74.666-89.6-121.6c-20.48-46.080-30.72-92.16-30.72-138.24 0-36.694 6.827-70.826 20.48-102.4 14.507-31.574 36.267-56.746 65.28-75.52 29.013-19.626 65.707-29.44 110.080-29.44 46.080 0 87.894 8.534 125.44 25.6 38.4 16.214 71.254 37.546 98.56 64s48.214 54.186 62.72 83.2c15.36 29.866 23.040 57.6 23.040 83.2 0 22.186-8.106 40.534-24.32 55.040-15.36 15.36-35.84 26.454-61.44 33.28-25.6 7.68-52.906 11.52-81.92 11.52-29.866 0-59.734-4.266-89.6-12.8-29.014-7.68-53.76-20.054-74.24-37.12-20.48-16.214-32.853-37.12-37.12-62.72 0-1.706-0.427-3.84-1.28-6.4 0-1.706 0-3.414 0-5.12 0-18.774 6.827-37.546 20.48-56.32 14.507-17.92 36.693-34.56 66.56-49.92 7.68-3.414 11.52-9.814 11.52-19.2s-4.266-11.946-12.8-7.68c-46.933 24.746-81.493 51.626-103.68 80.64-21.333 29.866-32 58.026-32 84.48 0 38.4 20.48 71.254 61.44 98.56 41.813 28.16 101.12 42.24 177.92 42.24h226.56c13.654 0 33.706 2.986 60.16 8.96 27.306 5.974 55.040 14.506 83.2 25.6 28.16 11.946 52.054 25.6 71.68 40.96 20.48 16.214 30.72 34.56 30.72 55.040 0 11.094-3.84 23.040-11.52 35.84-1.706 2.56-2.56 5.546-2.56 8.96 0 5.12 2.134 7.68 6.4 7.68 3.414 0 6.4-2.134 8.96-6.4 12.8-18.774 19.2-37.974 19.2-57.6 0-23.040-8.534-44.374-25.6-64-16.214-19.626-38.4-37.12-66.56-52.48-28.16-14.506-59.734-25.6-94.72-33.28-34.134-7.68-69.12-11.094-104.96-10.24 16.214-13.654 28.16-29.014 35.84-46.080s11.52-34.986 11.52-53.76c0-31.574-9.386-64-28.16-97.28-18.774-32.426-45.226-62.72-79.36-90.88-34.134-27.306-74.24-49.494-120.32-66.56-45.226-17.066-95.146-25.6-149.76-25.6zM519.68 479.36c28.16 0 42.24 5.546 42.24 16.64 0 4.266-3.84 8.534-11.52 12.8-6.826 5.12-16.214 8.106-28.16 8.96-5.12 0.854-13.654 1.28-25.6 1.28s-24.746 0-38.4 0c-12.8 0-23.466 0-32 0 21.334-26.454 52.48-39.68 93.44-39.68z" />
<glyph unicode="&#xe913;" glyph-name="eye" horiz-adv-x="1463" d="M731.423 783.238c231.013 0 437.027-129.829 537.599-335.238-100.571-205.409-305.979-335.236-537.599-335.236s-437.029 129.826-537.6 335.236c100.571 205.409 306.59 335.238 537.6 335.238zM731.423 905.143c-304.762 0-565.029-189.562-670.476-457.143 105.448-267.579 365.714-457.143 670.476-457.143s565.027 189.564 670.477 457.143c-105.45 267.581-365.714 457.143-670.477 457.143zM731.423 600.381c84.113 0 152.384-68.266 152.384-152.381s-68.272-152.381-152.384-152.381c-84.114 0-152.381 68.266-152.381 152.381s68.267 152.381 152.381 152.381zM731.423 722.286c-151.162 0-274.286-123.124-274.286-274.286s123.124-274.286 274.286-274.286c151.163 0 274.284 123.124 274.284 274.286s-123.121 274.286-274.284 274.286z" />
<glyph unicode="&#xe914;" glyph-name="facebook" d="M1002.667 445.039c0 270.988-219.678 490.667-490.667 490.667s-490.667-219.679-490.667-490.667c0-244.907 179.43-447.898 413.999-484.706v342.874h-124.582v141.833h124.582v108.1c0 122.973 73.254 190.9 185.331 190.9 53.683 0 109.837-9.583 109.837-9.583v-120.75h-61.871c-60.954 0-79.962-37.822-79.962-76.625v-92.041h136.081l-21.751-141.833h-114.33v-342.874c234.569 36.809 413.999 239.799 413.999 484.706z" />
<glyph unicode="&#xe915;" glyph-name="food" horiz-adv-x="1124" d="M486.646 897.111c-57.554-52.667-69.555-62.667-80.666-66.889-19.779-8-46.889-21.777-63.556-32.444-8.222-5.333-15.333-9.779-15.778-9.779s-1.333 7.334-2 16.445c-2.889 34.667-18.445 68.667-43.334 95.111-51.11 54.444-123.777 67.556-191.555 34.445-15.556-7.556-22.667-12.889-40-30.222-22.889-23.111-33.111-39.111-42.445-68-4.667-14.444-5.111-20-6-84.445-0.667-54.444 0-73.778 2.667-91.777 6-39.333 19.333-69.777 42.889-97.556 6.667-7.777 16-19.777 20.889-26.889l9.111-12.666-17.556-16c-9.555-8.889-26-23.778-36.667-33.334-19.778-18-23.111-22.444-20.667-28.888 0.889-2.223 23.778-24.223 51.111-49.112l49.556-45.11 1.555-19.112c2.222-25.333 0-117.777-3.333-137.333-1.333-8.445-6.445-37.111-11.111-63.556-4.889-26.445-10-61.11-11.333-76.888-2.444-25.778-2.444-30.667 0.889-44.223 6.667-26.667 25.778-47.778 52.667-57.778 15.11-5.778 48.666-5.333 63.999 0.667 26.223 10.667 44.223 30.888 50.89 57.111 3.332 13.555 3.332 18.889 1.111 43.334-1.334 15.333-6 47.111-10.223 70.222-4.444 23.333-9.333 52.221-11.332 64.444-9.334 59.334-4.223 252.001 8 296.445 5.555 20.666 18.667 46.222 32 62.444 30.444 37.111 43.999 61.333 52.666 92.888 3.777 14 4.888 26.445 6 69.333l1.333 52.223 18.889 12.668c84.001 56.222 191.111 76.666 293.333 55.999 42.445-8.667 96.667-31.334 133.778-56.223l18.445-12.444 1.333-73.333c1.334-81.778 1.778-85.557 17.556-112.223 8.222-13.999 20.666-27.11 43.11-45.332 12.89-10.445 26.89-31.113 31.334-46.667 3.556-12.223 6.222-44.666 10-122.222 1.333-28.89 3.334-50.001 4.666-51.779 3.556-4.223 11.777-3.556 16 1.111 3.334 3.556 3.556 8.667 1.556 51.779-6.889 146.222-6.222 144.667-69.778 203.334-11.332 10.443-16.444 17.554-22.888 31.11l-8.445 17.556-0.667 149.333c-0.666 164.445-1.111 159.334 12.668 165.111 8.444 3.333 16.666 1.556 23.777-5.555l5.333-5.333v-115.333c0-80 0.667-117.555 2.445-122.889 3.334-10.001 14.444-21.333 23.778-24.445 17.556-5.777 39.555 3.334 46.222 19.334 2.445 6 3.11 29.111 3.11 122.445 0 123.555 0 121.555 11.556 130.222 5.111 3.778 7.556 4.222 14.222 2.445 4.89-1.111 10.223-4.667 12.89-8.222 4.666-6.222 4.666-8.889 5.777-126 1.112-116.444 1.334-119.778 5.778-125.778 9.778-13.332 23.333-18.665 39.778-15.555 11.556 2.223 24.444 14.667 27.556 26.889 1.554 6.444 2.443 47.111 2.443 123.334v113.556l5.333 5.333c7.111 7.111 15.334 8.889 23.778 5.555 13.555-5.555 13.111-1.556 13.111-157.555 0-95.556-0.889-146.001-2.445-154-4.223-19.556-16.667-40.667-31.778-53.557-49.554-42.667-59.11-60.666-63.555-121.556-3.556-51.11-6.667-124.666-6.667-164.443 0-56.445 3.334-84.446 22.667-190 5.333-29.557 6.444-67.556 2-79.778-4.223-12.223-18.222-26.667-32-32.667-8.667-3.999-15.778-5.11-28.223-5.333-14.444 0-18.667 0.889-31.333 7.111-16.889 8.445-25.556 18.667-30.222 36.666-5.333 21.557-4.888 26.001 15.111 139.557 4.89 27.777 10.889 80 10.889 94.888 0 7.556-1.111 10.223-5.333 12.89-2.889 1.778-6.888 2.889-8.889 2-2.222-0.889-10.222-11.112-17.778-22.889-62.888-96.667-154.222-156.444-267.11-174.889-32.445-5.333-93.555-5.333-123.112 0-82.443 14.667-147.777 46.667-203.556 99.779-20.444 19.332-27.556 22.888-33.778 16.667-5.777-5.778-2.667-12.223 14.667-28.668 37.555-36.223 81.111-64.889 128-84.444 16.667-6.889 21.111-10.667 85.111-69.111 37.555-34.443 69.11-61.777 71.555-61.777 2.223 0 34 27.334 71.556 61.777l67.556 61.557 22.222 9.554c58.443 24.667 117.777 69.111 155.777 116.668 7.111 8.889 13.777 17.111 14.889 18.222 3.556 3.777-0.223-24.667-10.667-82-11.556-64.444-13.557-83.999-10.223-105.111 3.334-21.333 9.111-34.223 21.333-46.444 33.334-33.334 92.444-33.112 126.222 0.666 12.223 12.223 18.223 23.778 22 41.556 3.334 17.111-0.222 54.222-11.556 116.888-15.111 84.001-14.444 77.335-14.222 161.112 0.444 114.889 6.444 190.222 16.222 205.333 2.223 3.332 2 3.332 47.556-38l11.556-10.445-21.557-20.221c-11.999-11.112-21.777-21.778-21.777-23.556 0-4.223 8-11.999 12.223-11.999 3.332 0 53.777 44.444 57.333 50.443 4.001 6.667-1.778 13.778-35.11 44.001-18.89 17.111-34.445 31.778-34.445 32.666 0 0.89 4.666 5.333 10.445 10.001 32.222 26.222 45.333 42.889 54.444 69.111l5.111 14.888v309.556l-6.667 9.555c-19.556 27.556-59.334 24.889-74.445-4.889-4.221-8-4.444-13.778-4.444-124.889 0-114.445 0-116.666-4.666-122.443-5.333-6.667-14-7.556-21.555-2.223l-4.89 3.334v114c0 129.111-0.222 130.445-15.333 144.222-8.667 7.778-20.666 12.667-31.333 12.667-15.333-0.222-35.334-16.667-39.778-32.667-1.556-5.333-2.445-49.778-2.445-122.223 0-111.111-0.222-114.222-4.444-118.444-6.444-6.444-16.444-5.777-21.999 1.334-4.668 5.777-4.668 7.999-4.668 122.443 0 111.111-0.222 116.889-4.444 124.889-15.111 29.778-54.888 32.444-74.443 4.889l-6.667-9.555-0.667-67.556c-0.444-37.111-1.111-67.556-1.554-67.556-0.445 0-7.778 4.446-16 9.779-16.889 10.889-44.001 24.666-64 32.444-11.334 4.444-21.111 12.444-63.334 51.111-27.332 25.111-57.778 52.889-67.332 61.778-9.778 8.667-19.556 16-21.778 16s-34.222-27.556-71.778-62zM603.758 891.333c24-21.778 43.334-40.222 42.889-40.445-0.444-0.444-10 0.889-21.555 3.111-28.444 5.333-103.111 5.333-133.111 0-11.556-2-21.333-3.333-21.555-2.889-1.111 0.889 86.889 81.111 88.445 80.667 0.666-0.222 20.888-18.444 44.888-40.444zM191.535 926.667c26.89-5.333 47.334-16.667 68.444-37.556 19.556-19.556 28.89-34 36.89-57.778 4.888-15.111 5.111-17.555 4.888-93.334 0-73.111-0.222-78.888-4.888-95.333-6.444-23.111-18-46-31.556-62.444-43.11-52.223-55.777-81.556-59.999-141.111-3.777-51.334-6.667-124.001-6.667-162.445 0-53.777 3.334-83.332 19.112-169.778 12.666-70.222 12.444-91.999-1.556-113.111-10.222-15.111-30.444-24.667-53.111-24.667-27.11 0-48.444 12.444-58.666 34.445-4 8.445-4.667 13.778-4.444 34.445 0.222 13.777 2.444 35.11 4.889 48.889 11.556 62.222 18.222 104.222 20.222 127.778 5.556 60.666-0.889 231.111-10.222 268.666-7.778 31.333-24 61.11-51.778 94.444-13.556 16.444-27.111 41.778-33.556 63.556-4.667 15.555-5.111 21.777-5.778 88.889-1.111 82.443 0.222 93.999 14.222 122.222 10.222 20.889 37.333 48.889 57.333 59.111 32.889 17.111 63.111 22 96.222 15.111zM90.869 487.555c4.667-16 7.556-37.11 9.556-74 1.111-17.111 1.778-31.333 1.555-31.777-0.889-1.334-71.111 64.222-71.111 66.222 0 2.445 52.222 50.889 54.889 51.112 0.889 0 3.111-5.333 5.111-11.557zM492.425 42c29.111-5.333 103.555-5.333 132.666 0 11.556 2.223 21.111 3.556 21.555 3.112 0.445-0.445-19.332-18.889-43.777-41.334l-44.444-40.444-10.445 9.556c-5.777 5.333-25.778 23.555-44.221 40.444-18.667 17.111-34.001 31.333-34.001 31.778 0 1.111 0.889 0.889 22.667-3.112zM537.535 702c-38-4.666-72-14.667-101.555-30-82.223-42.889-130.667-126-130.667-224 0-140.666 98.889-244.666 242.222-254.666 68.444-4.668 140.444 23.333 191.556 74.889 39.111 39.111 63.778 87.778 71.778 141.333 12.221 81.333-13.778 160.222-72 218.667-29.557 29.555-61.111 49.111-100.223 62-31.111 10.667-72.445 15.333-101.111 11.777zM589.757 678c98.667-15.111 166.889-74.223 192.889-167.111 5.555-20.001 6-24.889 6-62.889 0-37.777-0.445-42.889-6-62.222-26.889-96.889-100.444-157.777-204.444-169.333-103.556-11.556-206.667 56.222-240.222 157.555-16.889 51.334-16.889 96.667 0 147.999 22.888 68.89 77.555 123.779 146.667 146.667 37.999 12.668 67.11 15.334 105.111 9.334zM474.869 574.889c-50.667-18.223-73.111-72.667-50.667-122 4.89-10.445 16.223-22.889 67.334-74.223 48.445-48.889 62.667-61.778 67.112-61.778s18.667 12.89 67.11 61.778c50.889 50.889 62.444 63.778 67.112 74 20.888 45.333 1.554 98.89-42.667 119.334-24.889 11.332-61.111 9.111-83.112-5.333l-8.444-5.333-8.667 5.777c-18.889 12.444-52.444 15.778-75.112 7.778zM529.314 552.445c5.333-2.445 13.999-7.556 19.332-11.334l10.001-7.111 10 7.111c16.222 11.556 27.334 15.778 43.556 15.778 18.222 0 32.222-4.668 43.999-14.667 23.111-20.001 29.778-53.333 16-81.556-2.889-5.999-24.666-29.333-59.11-63.777l-54.444-54.446-56.445 56.667c-51.777 52.001-56.667 57.556-60.223 68.89-5.999 17.778-5.11 37.555 2.223 52.443 6.889 14 22 28.223 35.11 32.89 13.778 4.888 38.446 4.444 50.001-0.889z" />
</font>
</defs>
</svg>
