<svg width="29" height="30" viewBox="0 0 29 30" fill="none" xmlns="http://www.w3.org/2000/svg">
<g id="subway:hurt">
<path id="Vector" d="M13.9352 6.16824L14.5 6.81476L15.0648 6.16824C15.9496 5.15552 16.7897 4.32557 17.8133 3.74024C18.8231 3.16288 20.0547 2.7998 21.75 2.7998C23.3937 2.7998 24.9866 3.34405 26.1768 4.66697C27.3737 5.99727 28.25 8.21143 28.25 11.7184C28.25 13.1627 27.5825 15.4053 25.8072 18.0114C24.0417 20.6032 21.2062 23.5143 16.9473 26.2899C15.459 27.2598 13.541 27.2598 12.0527 26.2898C7.79381 23.5143 4.95835 20.6032 3.19285 18.0114C1.41754 15.4053 0.75 13.1627 0.75 11.7184C0.75 8.21143 1.62628 5.99727 2.82317 4.66697C4.01343 3.34405 5.60634 2.7998 7.25 2.7998C8.94534 2.7998 10.1769 3.16288 11.1867 3.74024C12.2103 4.32557 13.0504 5.15552 13.9352 6.16824Z" stroke="black" stroke-width="1.5"/>
</g>
</svg>
